<?xml version="1.0" standalone="no"?>
<!DOCTYPE svg PUBLIC "-//W3C//DTD SVG 1.1//EN" "http://www.w3.org/Graphics/SVG/1.1/DTD/svg11.dtd" >
<svg xmlns="http://www.w3.org/2000/svg">
<metadata>
This is a custom SVG webfont generated by Font Squirrel.
Copyright   : Copyright c 2010 Sebastian Kosch sebastianaldusleaforgwith Reserved Font Name CrimsonThis Font Software is licensed under the SIL Open Font License Version 11This license is available with a FAQ at httpscriptssilorgOFL
</metadata>
<defs>
<font id="CrimsonItalic" horiz-adv-x="898" >
<font-face units-per-em="2048" ascent="1638" descent="-410" />
<missing-glyph horiz-adv-x="454" />
<glyph unicode=" "  horiz-adv-x="454" />
<glyph unicode="&#x09;" horiz-adv-x="454" />
<glyph unicode="&#xa0;" horiz-adv-x="454" />
<glyph unicode="!" horiz-adv-x="468" d="M40 72q0 56 38 94t94 38q36 0 61 -28t25 -64q0 -58 -37 -99t-93 -41q-38 0 -63 30t-25 70zM160 332q0 4 17 144t43 342t46 336q6 34 40 71t78 37q30 0 46 -26t16 -60q0 -24 -33 -147t-91 -335t-94 -354q-4 -18 -25 -31t-31 -13q-12 0 -12 36z" />
<glyph unicode="&#x22;" horiz-adv-x="662" d="M214 894q8 80 8 151t-4 136t-4 91q6 34 46 79t88 45q46 0 57 -21t-1 -109q-12 -62 -57 -188t-61 -180q-4 -14 -17 -22t-25 -8t-22 7t-8 19zM514 894q8 80 8 151t-4 136t-4 91q6 34 46 79t88 45q46 0 57 -21t-1 -109q-12 -62 -57 -188t-61 -180q-4 -14 -17 -22t-25 -8 t-22 7t-8 19z" />
<glyph unicode="#" horiz-adv-x="894" d="M26 362q0 24 17 59t29 35h158l60 184h-158q-10 0 -10 6q0 24 17 59t29 35h158l102 306q0 14 62 14q22 0 38 -8q-2 -6 -28 -82t-52 -150l-24 -72l-4 -8h186l102 306q0 14 62 14q22 0 38 -8q-2 -6 -28 -82t-52 -150l-24 -72l-4 -8h160q10 0 10 -4q0 -24 -17 -60t-29 -36 h-158l-60 -184h158q10 0 10 -6q0 -24 -17 -59t-29 -35h-158l-102 -306q0 -14 -62 -14q-26 0 -38 6q2 8 28 84t52 150l24 72l4 8h-186l-102 -306q0 -14 -62 -14q-26 0 -38 6q2 8 28 84t52 150l24 72l4 8h-160q-10 0 -10 6zM326 456h184l60 184h-184z" />
<glyph unicode="$" horiz-adv-x="870" d="M38 354q8 12 48 12q14 0 18 -12q0 -44 15 -93t45 -98t85 -80t123 -31q92 0 166 62t74 168q0 24 -3 44t-11 39t-12 32t-20 31t-22 26t-27 26t-26 23t-31 26t-32 25q-18 14 -59 44t-61 47t-52 49t-47 61t-28 71t-13 90q0 104 65 191t156 131t183 44q40 0 78 -5t58 -9 t66 -16t62 -16q-12 -140 -40 -278q-2 -14 -18 -14q-28 0 -42 14q8 124 -35 190t-157 66q-110 0 -168 -65t-58 -149q0 -38 11 -72t23 -57t40 -50t44 -41t53 -41t51 -39q12 -10 62 -46t70 -55t52 -56t45 -79t13 -94q0 -112 -70 -204t-169 -137t-199 -45q-114 0 -284 80 q-16 70 -21 167t-1 123zM178 -86l506 1452q64 0 62 -14l-506 -1456q-64 0 -62 18z" />
<glyph unicode="%" horiz-adv-x="1260" d="M4 -2l1192 1306q22 22 44 22q44 0 54 -26l-1192 -1300q-24 -24 -68 -24q-24 0 -30 22zM148 938q0 152 108 280t256 128q110 0 168 -77t58 -187q0 -150 -108 -278t-250 -128q-108 0 -170 77t-62 185zM274 956q0 -90 32 -157t98 -67q90 0 147 110t57 240q0 84 -27 147 t-89 63q-90 0 -154 -106t-64 -230zM572 246q0 152 108 280t256 128q110 0 168 -77t58 -187q0 -150 -108 -278t-250 -128q-108 0 -170 77t-62 185zM698 264q0 -90 32 -157t98 -67q90 0 147 110t57 240q0 84 -27 147t-89 63q-90 0 -154 -106t-64 -230z" />
<glyph unicode="&#x26;" horiz-adv-x="1562" d="M-14 214q0 94 56 163t162 99q6 2 54 15t71 20t76 24t84 29t80 34t79 41t66 46t56 54t34 61t14 70q0 118 -102 118q-108 0 -191 -138t-83 -340q0 -226 98 -341t280 -115q142 0 258 97t116 233q0 62 -30 92q-90 -30 -159 -78t-69 -108q0 -30 8 -44q-6 -4 -20 -1t-20 11 q-42 34 -42 114q0 64 57 115t173 101q402 172 382 498q22 2 40 -16q44 -88 44 -188q0 -114 -69 -206t-181 -146q12 -24 12 -72q0 -180 -172 -323t-392 -143q-102 0 -186 25t-151 77t-104 143t-37 213q0 110 42 221t114 201t178 146t224 56q68 0 118 -50t50 -118 q0 -72 -36 -136t-102 -110t-130 -81t-148 -62t-126 -38t-92 -23q-52 -12 -71 -17t-63 -16t-62 -21t-43 -24t-35 -31t-10 -37q0 -10 2 -18t7 -15t9 -11t12 -10t10 -8q38 -34 38 -66q0 -42 -25 -64t-63 -22q-32 0 -50 10q-40 34 -40 110z" />
<glyph unicode="'" horiz-adv-x="362" d="M214 894q8 80 8 151t-4 136t-4 91q6 34 46 79t88 45q46 0 57 -21t-1 -109q-12 -62 -57 -188t-61 -180q-4 -14 -17 -22t-25 -8t-22 7t-8 19z" />
<glyph unicode="(" horiz-adv-x="520" d="M98 354q20 -240 109 -399t189 -197q10 4 10 24q-80 86 -127 214t-63 332q-16 178 17 369t96 342t124 261t115 170q0 20 -14 26q-58 -52 -115 -117t-129 -176t-122 -232t-78 -284t-12 -333z" />
<glyph unicode=")" horiz-adv-x="520" d="M-10 -216q-4 -18 14 -26q58 52 115 117t129 176t122 232t78 284t12 333q-20 240 -109 399t-189 197q-10 -4 -10 -24q80 -86 127 -214t63 -332q16 -178 -18 -369t-96 -342t-123 -261t-115 -170z" />
<glyph unicode="*" horiz-adv-x="800" d="M128 912q0 18 7 35t36 35t79 18q32 0 85 -7t71 -7q50 0 50 34q0 20 -51 99t-51 127q0 36 21 59t47 23q22 0 36 -14t20 -41t8 -52t2 -61q0 -132 24 -132q16 0 45 37t58 82t69 82t74 37q46 0 46 -48t-66 -94t-133 -81t-67 -61q0 -18 39 -31t85 -21t85 -32t39 -60 q0 -28 -22 -50t-52 -22q-36 0 -76 41t-73 83t-53 42t-27 -36t-13 -103t-20 -111q-12 -42 -35 -64t-47 -22q-20 0 -33 15t-13 41q0 44 65 149t65 127q0 18 -18 18q-16 0 -110 -41t-136 -41q-60 0 -60 48z" />
<glyph unicode="+" horiz-adv-x="908" d="M36 450q0 36 26 70h344l66 350q4 16 34 24t48 8q12 0 16 -5t2 -11l-70 -366h342q6 0 6 -16q0 -44 -24 -70h-340l-70 -356q-6 -32 -70 -32q-28 0 -28 16l72 372h-344q-10 0 -10 16z" />
<glyph unicode="," horiz-adv-x="400" d="M-70 -242q34 26 83 90t49 116q0 26 -16 66t-16 82q0 76 37 111t81 35q14 0 37 -10t29 -18q4 -10 4 -40q0 -156 -66 -266q-70 -114 -196 -202q-6 0 -16 12t-10 24z" />
<glyph unicode="-" horiz-adv-x="742" d="M106 428q0 20 14 56t28 38l454 24q12 0 12 -24q0 -22 -16 -61t-30 -41l-452 -22q-10 0 -10 30z" />
<glyph unicode="." horiz-adv-x="416" d="M16 66q0 54 42 96t92 42q38 0 62 -25t24 -65q0 -54 -41 -98t-91 -44q-38 0 -63 27t-25 67z" />
<glyph unicode="/" horiz-adv-x="764" d="M-64 -56l850 1534q8 14 37 29t55 15q16 0 24 -12l-848 -1534q-6 -12 -35 -28t-59 -16q-18 0 -24 12z" />
<glyph unicode="0" horiz-adv-x="844" d="M60 336q0 216 134 388t290 172q116 0 190 -98t74 -248q0 -216 -133 -388t-289 -172q-116 0 -191 98t-75 248zM218 354q0 -132 37 -207t103 -75q100 0 166 150t66 312q0 128 -38 205t-102 77q-100 0 -166 -150t-66 -312z" />
<glyph unicode="1" horiz-adv-x="554" d="M-4 -6q-6 8 0 31t12 23q24 0 70 13t54 31q32 56 42 114l82 412q10 80 10 88q0 24 -22 24q-16 0 -64 -16t-66 -24q-4 0 -12 18t-8 28q0 12 10 16q30 12 342 134q4 0 10 -18t6 -26q0 -2 -10 -28t-24 -68t-22 -78l-84 -440q-12 -90 -12 -124q0 -28 45 -42t71 -14q8 0 2 -26 q-2 -18 -10 -28q-184 10 -214 10q-12 0 -208 -10z" />
<glyph unicode="2" horiz-adv-x="784" d="M-40 32q24 20 107 91t117 101t103 92t102 99t73 86t57 87t17 72q0 114 -114 114q-58 0 -113 -24t-85 -48t-80 -74q-8 0 -19 12t-5 20q20 34 51 70t78 78t112 69t133 27q90 0 141 -54t51 -134q0 -48 -23 -101t-64 -104t-84 -96t-98 -91t-92 -74t-80 -59t-47 -35 q-6 -6 -6 -14t8 -8h260q56 0 85 26t73 96q4 10 26 10q14 0 22 -10q-12 -32 -45 -115t-53 -143l-254 2h-346q-14 4 -8 32z" />
<glyph unicode="3" horiz-adv-x="712" d="M-132 -340q0 42 29 71t55 29q28 0 57 -20t61 -20q116 0 221 120t105 260q0 72 -38 123t-98 51q-72 0 -138 -22q-14 8 -9 33t15 39q124 38 238 137t114 211q0 48 -28 77t-76 29q-94 0 -220 -110q-10 0 -18 16t-2 26q66 84 159 139t191 55q58 0 99 -46t41 -118 q0 -98 -85 -206t-161 -146q58 -8 121 -76t63 -160q0 -102 -67 -204t-164 -172t-202 -113t-185 -43q-42 0 -74 16q-4 16 -4 24z" />
<glyph unicode="4" horiz-adv-x="822" d="M-88 70l722 814q20 24 48 24q8 0 14 -6t6 -14l-146 -740q-4 -12 14 -16h104q30 0 14 -86q-4 -22 -16 -34h-130q-12 0 -14 -16l-70 -356q-16 -16 -78 -16q-36 0 -51 7t-11 21l70 350q0 10 -14 10h-446q-10 8 -15 27t-1 31zM74 150q-6 -18 10 -18h310q14 4 18 14l96 476 q0 16 -4 16q-2 0 -4 -2l-422 -480q-4 -4 -4 -6z" />
<glyph unicode="5" horiz-adv-x="662" d="M-124 -362q-2 14 1 29t11 15q42 0 100 20t123 60t119 93t90 128t36 155q0 116 -68 175t-206 101q-20 6 -12 32q0 6 23 73t59 170t64 175q8 20 20 20q316 0 386 16q6 -8 6 -30q0 -66 -42 -126q-84 -6 -161 -9t-121 -3h-48q-16 0 -20 -16l-60 -176q-4 -12 8 -16 q68 -14 143 -54t134 -113t59 -153q0 -116 -65 -226t-162 -186t-208 -122t-203 -46q-4 0 -6 14z" />
<glyph unicode="6" horiz-adv-x="848" d="M58 346q0 136 56 267t141 232t198 192t215 152t204 107q10 0 18 -23t6 -33q-76 -38 -151 -83t-176 -128t-175 -174t-127 -222t-53 -271q0 -114 35 -205t109 -91q86 0 159 134t73 322q0 84 -14 138t-44 76t-54 28t-64 6q-2 0 -3 16t1 20q42 30 108 30q78 0 153 -90 t75 -222q0 -188 -133 -363t-291 -175q-120 0 -193 106t-73 254z" />
<glyph unicode="7" horiz-adv-x="752" d="M18 -352q0 18 8 32l640 1042h-446q-64 0 -132 -136q-34 -4 -46 12q40 140 66 248q6 24 38 24h538q28 0 74 3t48 3q12 0 8 -18q-4 -14 -76 -134l-672 -1104q-6 -2 -14 -2q-16 0 -25 10t-9 20z" />
<glyph unicode="8" horiz-adv-x="812" d="M58 262q0 110 86 212t180 150q2 0 2 6v6q-52 48 -91 128t-39 152q0 150 95 243t229 93q96 0 167 -67t71 -173q0 -194 -230 -348q-6 -4 -6 -6q0 -4 2 -6q156 -156 156 -286q0 -182 -106 -280t-254 -98q-118 0 -190 77t-72 197zM202 254q0 -84 46 -136t112 -52q78 0 124 63 t46 167q0 66 -35 133t-59 94t-46 47q-8 8 -14 8t-8 -2q-86 -54 -126 -146t-40 -176zM334 956q0 -104 128 -246q4 -4 12 -4q4 0 16 8q136 122 136 274q0 70 -40 128t-102 58t-106 -57t-44 -161z" />
<glyph unicode="9" horiz-adv-x="806" d="M-98 -358q76 38 151 83t176 128t176 174t127 222t52 271q0 70 -13 134t-47 113t-84 49q-86 0 -159 -134t-73 -322q0 -84 14 -138t44 -76t54 -28t64 -6q4 0 4 -16t-2 -20q-42 -30 -108 -30q-78 0 -153 90t-75 222q0 120 60 246t160 209t204 83q122 0 194 -106t72 -254 q0 -136 -56 -267t-141 -232t-198 -192t-215 -152t-204 -107q-10 0 -18 23t-6 33z" />
<glyph unicode=":" horiz-adv-x="472" d="M38 68q0 56 42 100t94 44q40 0 65 -27t25 -69q0 -56 -42 -100t-94 -44q-40 0 -65 27t-25 69zM166 734q0 56 43 99t95 43q40 0 65 -27t25 -67q0 -56 -42 -101t-94 -45q-40 0 -66 28t-26 70z" />
<glyph unicode=";" horiz-adv-x="470" d="M-48 -242q34 26 83 90t49 116q0 26 -16 66t-16 82q0 76 37 111t81 35q14 0 37 -10t29 -18q4 -10 4 -40q0 -156 -66 -266q-70 -114 -196 -202q-6 0 -16 12t-10 24zM176 734q0 56 43 99t95 43q40 0 65 -27t25 -67q0 -56 -42 -101t-94 -45q-40 0 -66 28t-26 70z" />
<glyph unicode="&#x3c;" horiz-adv-x="894" d="M24 406q0 52 46 76l762 374q4 2 8 2q14 0 14 -70q0 -36 -10 -40l-670 -330l548 -336q4 -2 4 -10q0 -18 -21 -59t-29 -41q-4 0 -8 2l-624 380q-20 14 -20 52z" />
<glyph unicode="=" horiz-adv-x="1120" d="M68 246q0 10 17 55t29 45h832q12 0 12 -10q0 -4 -36 -90l-14 -12h-830q-10 0 -10 12zM126 530q0 8 16 54t28 46h830q12 0 12 -10t-34 -90q-6 -12 -16 -12h-828q-8 0 -8 12z" />
<glyph unicode="&#x3e;" horiz-adv-x="896" d="M-14 66l10 16l682 336l-544 330q-4 2 -4 8q0 12 22 58t30 46l8 -4l614 -374q24 -14 24 -40q0 -64 -48 -88l-770 -380q-8 -4 -12 -4q-12 0 -12 96z" />
<glyph unicode="?" horiz-adv-x="640" d="M80 64q0 56 40 98t90 42q38 0 64 -26t26 -66q0 -54 -43 -97t-93 -43q-38 0 -61 26t-23 66zM132 566q0 98 98 166l232 160q92 64 92 152q0 56 -29 88t-75 32q-38 0 -63 -23t-47 -46t-54 -23q-38 0 -53 33t-15 71q8 26 63 56t109 30q108 0 187 -81t79 -177q0 -126 -88 -208 q-22 -20 -55 -41t-84 -53t-91 -60q-66 -44 -66 -120q0 -38 26 -74t52 -54q0 -6 -6 -17t-14 -15q-46 0 -122 64t-76 140z" />
<glyph unicode="@" horiz-adv-x="1518" d="M58 282q0 370 233 621t551 251q268 0 421 -168t153 -420q0 -146 -46 -263t-116 -182t-140 -99t-130 -34q-70 0 -114 40t-44 88q0 28 10 80q8 38 10 52q-20 -36 -46 -73t-65 -83t-85 -75t-86 -29q-88 0 -139 79t-51 191q0 142 85 285t219 234t268 91q76 0 146 -26 l-122 -632q-24 -130 62 -130q108 0 194 146t86 308q0 254 -123 397t-357 143q-128 0 -250 -58t-219 -158t-157 -252t-60 -326q0 -108 49 -222t135 -182q40 -32 82 -50q-16 -14 -64 -14q-34 0 -78 30t-70 60q-64 72 -103 177t-39 203zM522 300q0 -196 102 -196q72 0 161 146 t119 296l40 204q-24 26 -82 26q-118 0 -229 -153t-111 -323z" />
<glyph unicode="A" horiz-adv-x="1172" d="M-110 -6q-2 2 -2 7q0 7 3 19q5 22 11 32q22 0 60 10t54 28q48 54 124 188l552 990q12 22 39 40t41 18q2 0 4 -3t6 -3l172 -1068q18 -122 22 -132q6 -30 48 -49t64 -19q1 -5 1 -11q0 -9 -2 -21q-3 -20 -5 -26q-186 10 -204 10q-2 0 -216 -10q-6 8 -2 29t14 29q20 0 58 8 t52 18q8 8 12 28q2 10 2 27q0 87 -50 361q-2 8 -8 8q-24 2 -188 2q-112 0 -196 -6l-12 -6q-86 -146 -132 -242q-40 -74 -54 -142q-6 -22 22 -36t52 -17t40 -3q2 -4 -1 -26t-7 -32q-28 2 -59 4t-57 4t-62 2q-38 0 -67 -2t-63 -4t-66 -4zM404 600q0 -8 4 -8q96 -4 158 -4 q72 0 160 6l8 10l-70 466z" />
<glyph unicode="B" horiz-adv-x="1132" d="M-10 -6q-2 4 -2 11t2 18q4 21 12 29q28 0 78 9t56 23q14 28 38 148l166 854q21 101 21 138q0 6 -1 10q0 14 -47 23t-75 9q-4 8 -1 29t11 29q190 -10 218 -10q32 0 119 2t145 2q70 0 129 -15t109 -48t72 -93q13 -35 13 -77q0 -31 -7 -65q-20 -102 -96 -178t-146 -102 q-8 -4 -2 -10q36 -2 77 -27t77 -66t53 -105q9 -35 9 -72q0 -30 -6 -62q-16 -84 -75 -169t-131 -135q-142 -96 -388 -100h-428zM326 100q26 -36 140 -36q296 0 352 288q10 49 10 91q0 225 -294 225h-114l-84 -432q-6 -30 -10 -73q-2 -22 -2 -37.5t2 -25.5zM436 744h188 q96 0 161 68t83 162q8 39 8 72q0 81 -45 131q-63 71 -195 71q-86 0 -98 -20t-38 -150z" />
<glyph unicode="C" horiz-adv-x="1290" d="M118 530q0 242 117 430t301 282q176 90 377 90h17q120 -2 322 -52q-2 -42 -11 -165t-9 -127q-2 -16 -22 -16q-30 0 -40 16q1 10 1 19q0 105 -82 177q-89 78 -217 78q-242 0 -403 -191t-161 -507q0 -94 23 -180t68 -162t127 -121t190 -45q152 0 274 102q88 74 148 188 l56 -16q-6 -32 -64 -144t-80 -130q-138 -72 -390 -72q-238 0 -390 159t-152 387z" />
<glyph unicode="D" horiz-adv-x="1368" d="M-10 -6q-2 4 -2 11t2 18q4 21 12 29q28 0 78 9t56 23q14 28 38 148l166 854q21 101 21 138q0 6 -1 10q0 14 -47 23t-75 9q-4 8 -1 29t11 29q190 -10 218 -10q36 0 132 1t138 1q316 0 463 -182q106 -132 106 -317q0 -71 -15 -149q-20 -108 -59 -201t-107 -182t-158 -152 t-221 -101t-289 -38h-466zM322 92q14 -28 146 -28q148 0 274 57t223 187t133 318q20 113 20 204q0 45 -5 84q-15 118 -78 192t-152 108t-209 34q-122 0 -134 -22q-12 -26 -38 -148l-164 -842q-6 -28 -13 -82q-4 -34 -4 -50q0 -9 1 -12z" />
<glyph unicode="E" horiz-adv-x="1108" d="M-12 23q4 21 12 29q28 0 78 9t58 23q14 28 38 148l166 854q19 95 19 135q0 7 -1 13q-2 14 -48 23t-74 9q-6 8 -2 29t14 29q190 -10 218 -10q82 0 288 7t312 7q-4 -14 -4 -62q0 -31 2 -77q4 -115 4 -133q-10 -10 -36 -10q-22 0 -22 14q-8 110 -53 146t-129 36h-160 q-122 0 -132 -22q-16 -30 -36 -142l-72 -368q-2 -6 20 -9t58 -3h98q46 0 72 1t50 7t34 11t24 24t21 33t23 50q4 12 8 18q4 14 32 14q20 0 28 -10l-72 -378q-8 -8 -32 -8t-26 16q-4 56 -8 83t-7 34t-11 15q-22 16 -194 16q-134 0 -138 -18l-74 -374q-18 -86 -18 -119 q0 -15 4 -19q14 -14 38 -17t90 -3h88q56 0 128 13t116 35q32 16 76 71t80 131q6 12 30 12q36 0 44 -12q-14 -24 -58 -105t-70 -134t-38 -93q-96 0 -299 4t-333 4q-46 0 -117 -3t-105 -3q-4 5 -4 14q0 7 2 15z" />
<glyph unicode="F" horiz-adv-x="1016" d="M-12 23q4 21 12 29q28 0 78 9t58 23q14 28 38 148l166 854q19 95 19 135q0 7 -1 13q-2 14 -48 23t-74 9q-6 8 -2 29t14 29q190 -10 218 -10q82 0 288 7t312 7q-4 -14 -4 -62q0 -31 2 -77q4 -115 4 -133q-10 -10 -36 -10q-22 0 -22 14q-8 110 -53 146t-129 36h-160 q-122 0 -132 -22q-16 -30 -36 -142l-72 -368q-2 -6 20 -9t58 -3h98q46 0 72 1t50 7t34 11t24 24t21 33t23 50q4 12 8 18q4 14 32 14q20 0 28 -10l-72 -378q-8 -8 -32 -8t-26 16q-4 56 -8 83t-7 34t-11 15q-22 16 -194 16q-134 0 -138 -18l-74 -374q-19 -90 -19 -131 q0 -10 1 -17q0 -14 55 -23t85 -9q4 -8 0 -29t-12 -29q-190 10 -234 10q-46 0 -116 -5t-104 -5q-4 5 -4 14q0 7 2 15z" />
<glyph unicode="G" horiz-adv-x="1374" d="M118 530q0 242 117 430t301 282q176 90 377 90h17q120 -2 322 -52q-2 -42 -11 -165t-9 -127q-2 -16 -22 -16q-30 0 -40 16q1 12 1 24q0 105 -64 174q-71 76 -195 76q-246 0 -425 -193t-179 -505q0 -94 23 -181t69 -162t125 -120t181 -45q134 0 230 58q16 10 18 30l40 206 q21 101 21 138q0 6 -1 10q-2 14 -52 23t-80 9q-4 8 0 29t12 29q190 -10 222 -10q20 0 214 10q4 -5 4 -14q0 -6 -2 -15q-4 -21 -12 -29q-28 0 -75 -9t-53 -23q-14 -28 -38 -148l-28 -142q-6 -18 -1 -44t5 -28q0 -22 -44 -44q-70 -36 -103 -51t-127 -36t-208 -21 q-228 0 -379 160t-151 386z" />
<glyph unicode="H" horiz-adv-x="1372" d="M-12 23q4 21 12 29q28 0 78 9t58 23q14 28 38 148l166 854q19 95 19 135q0 7 -1 13q-2 14 -48 23t-74 9q-6 8 -2 29t14 29q190 -10 218 -10q24 0 220 10q4 -8 0 -29t-12 -29q-28 0 -78 -9t-56 -23q-14 -28 -38 -148l-70 -356l2 -6q180 -4 292 -4q118 0 286 4q4 4 4 8 l70 354q19 95 19 135q0 7 -1 13q-2 14 -48 23t-74 9q-6 8 -2 29t14 29q190 -10 218 -10q24 0 220 10q2 -4 2 -11t-2 -18q-4 -21 -12 -29q-28 0 -78 -9t-56 -23q-14 -28 -38 -148l-166 -854q-21 -101 -21 -138q0 -6 1 -10q0 -14 47 -23t75 -9q4 -8 0 -29t-12 -29 q-190 10 -216 10t-220 -10q-6 8 -2 29t12 29q28 0 78 9t58 23q14 28 38 148l78 402l-2 8q-176 4 -284 4q-280 0 -296 -8l-2 -4l-78 -402q-21 -101 -21 -138q0 -6 1 -10q0 -14 47 -23t75 -9q4 -8 0 -29t-12 -29q-190 10 -214 10q-28 0 -222 -10q-4 5 -4 14q0 7 2 15z" />
<glyph unicode="I" horiz-adv-x="626" d="M-12 23q4 21 12 29q28 0 78 9t58 23q14 28 38 148l166 854q19 95 19 135q0 7 -1 13q-2 14 -48 23t-74 9q-6 8 -2 29t14 29q190 -10 218 -10q24 0 220 10q2 -4 2 -11t-2 -18q-4 -21 -12 -29q-28 0 -78 -9t-56 -23q-14 -28 -38 -148l-166 -854q-21 -101 -21 -138 q0 -6 1 -10q0 -14 47 -23t75 -9q4 -8 0 -29t-12 -29q-190 10 -214 10q-28 0 -222 -10q-4 5 -4 14q0 7 2 15z" />
<glyph unicode="J" horiz-adv-x="598" d="M-216 -440l2 12q162 50 244 197t138 449l150 806q22 128 22 184q0 22 -50 38t-76 16q-2 0 0 12t5 25t7 17q24 -2 95 -7t121 -5q48 0 123 6t89 6q0 -40 -8 -54q-16 0 -63 -16t-53 -30q-32 -74 -52 -186l-150 -798q-36 -188 -103 -330t-145 -218t-151 -113t-139 -37 q-6 10 -6 26z" />
<glyph unicode="K" horiz-adv-x="1228" d="M-10 23q4 21 12 29q28 0 77 9t57 23q14 28 38 148l166 854q20 108 20 142q0 12 -10.5 18t-37.5 11q-46 9 -74 9q-6 8 -2 29t14 29q190 -10 218 -10q22 0 218 10q4 -8 1 -29t-11 -29q-28 0 -79 -9t-57 -23q-14 -28 -38 -148l-78 -406q62 38 248 198q22 20 64 56t52 45 t35 32t33 31l28 28q20 20 36 37t42 45q32 38 38 62q2 18 -8 29t-31 15t-32 5t-23 1q-8 24 12 60q204 -12 210 -12q48 0 117 6t87 6q2 -10 -4 -35t-12 -25q-2 0 -13 -1l-22 -2q-11 -1 -27 -4t-32 -8t-34 -12t-36 -19t-34 -28q-58 -54 -108 -101t-105 -95t-91 -80t-105 -91 t-105 -91q-16 -14 -4 -32q252 -416 362 -556q68 -82 184 -92q10 -14 -12 -58q-208 0 -260 22q-66 28 -110 86q-48 66 -320 506q-2 6 -16 6q-10 0 -18 -4l-74 -378q-19 -90 -19 -131q0 -10 1 -17q0 -14 47 -23t75 -9q4 -8 0 -29t-12 -29q-190 10 -216 10t-220 -10q-4 5 -4 14 q0 7 2 15z" />
<glyph unicode="L" horiz-adv-x="1060" d="M-10 -6q-2 4 -2 11t2 18q4 21 12 29q28 0 78 9t56 23q14 28 38 148l166 854q21 101 21 138q0 6 -1 10q0 14 -47 23t-75 9q-4 8 -1 29t11 29q190 -10 218 -10q26 0 220 10q6 -8 1 -29t-13 -29q-28 0 -77 -9t-57 -23q-14 -28 -38 -148l-166 -848q-19 -97 -19 -129 q0 -12 3 -15q14 -14 38 -17t90 -3h106q154 0 228 48q88 54 156 202q6 12 28 12q36 0 44 -12q-12 -26 -43 -83t-49 -92t-39 -81t-33 -76q-94 0 -299 4t-335 4q-46 0 -117 -3t-105 -3z" />
<glyph unicode="M" horiz-adv-x="1706" d="M-48 -6q-2 4 2 26t10 32q30 0 86 10t70 26q26 30 42 100q194 842 212 956q9 42 9 66q0 8 -1 14q0 16 -49 29t-73 13q-2 0 1 14l6 28q3 14 5 16q32 -2 65 -4t60 -4t65 -2q48 0 152 10q6 -54 40 -231t82 -418t72 -383q2 -4 6 -4q8 0 12 8l438 788l128 240q116 -8 144 -8 q114 0 210 8l-4 -58q-26 0 -78 -11t-62 -25q-16 -30 -24 -76l-152 -874q-17 -95 -17 -152q0 -24 3 -42q4 -18 49 -26t73 -8q4 -14 1 -33t-7 -25q-184 10 -220 10q-10 0 -226 -10q-2 4 2 26t10 32q22 0 66 6t60 16t32 84q4 14 11 58t9 58l142 856q4 6 2 23t-12 17 q-4 0 -12 -14l-598 -1058q-10 -20 -43 -60t-47 -42q-2 0 -16 4l-228 1168q-40 -192 -95 -442t-90 -411t-37 -165q-8 -34 -4 -62q4 -20 57 -28t83 -8q4 -8 0 -30t-8 -28q-184 10 -194 10q-4 0 -220 -10z" />
<glyph unicode="N" horiz-adv-x="1464" d="M-24 -6q-3 8 -3 16q0 19 15 42q26 0 83 12t69 28q28 38 46 136l168 868q12 67 12 104q0 21 -4 32q-6 16 -58 28t-78 12q-10 34 10 58q26 -2 91 -6t101 -4q90 0 142 4q30 -78 245 -455t291 -537l8 46l140 712q12 65 12 103q0 23 -4 35q-6 14 -56 27t-78 13q-10 22 8 58 q184 -10 212 -10q38 0 68 2t67 4t69 4q3 -9 3 -18q0 -19 -13 -40q-26 0 -84 -12t-70 -28q-26 -34 -44 -136l-158 -814q-36 -194 -50 -280q-8 -8 -34 -8q-12 0 -28 13t-26 33l-596 1102l-176 -908q-12 -65 -12 -103q0 -23 4 -35q6 -14 56 -27t78 -13q10 -22 -8 -58 q-186 10 -212 10q-38 0 -69 -2t-68 -4t-69 -4z" />
<glyph unicode="O" horiz-adv-x="1420" d="M122 554q0 334 212 555t496 221q232 0 373 -164t141 -410q0 -344 -205 -561t-501 -217q-236 0 -376 165t-140 411zM310 536q0 -94 16 -174t53 -154t108 -116t169 -42q146 0 263 110t177 277t60 349q0 64 -8 124t-32 125t-61 113t-100 79t-143 31q-196 0 -349 -208 t-153 -514z" />
<glyph unicode="P" horiz-adv-x="1022" d="M-12 23q4 21 12 29q28 0 78 9t58 23q14 28 38 148l166 854q19 95 19 135q0 7 -1 13q-2 14 -48 23t-74 9q-6 8 -2 29t14 29q190 -10 222 -10q30 0 118 2t148 2q128 0 220 -84t92 -206q0 -198 -140 -331t-328 -133q-64 0 -90 20q-16 12 -16 32q0 4 8 8q16 -8 66 -8 q116 0 218 112t102 260q0 260 -234 260q-86 0 -96 -20q-12 -20 -38 -150l-166 -846q-19 -90 -19 -131q0 -10 1 -17q0 -14 47 -23t75 -9q4 -8 0 -29t-12 -29q-190 10 -216 10t-220 -10q-4 5 -4 14q0 7 2 15z" />
<glyph unicode="Q" horiz-adv-x="1410" d="M126 656q52 280 269 479t465 199q122 0 223 -50t165 -140t90 -214q12 -58 12 -121q0 -73 -16 -153q-46 -226 -202 -405t-356 -243q46 -28 115 -80t120 -71t139 -19q92 0 134 12q10 0 21 -6t11 -14q-202 -102 -330 -102q-68 0 -137 34t-120 77t-127 91t-150 70 q-188 54 -281 232q-61 117 -61 264q0 76 16 160zM300 514v-15q0 -84 21 -160q23 -83 63 -147t106 -101t150 -37q100 0 188 49t150 132t103 180t63 203q18 79 18 158q0 36 -4 73q-12 115 -48 206t-112 148t-180 57q-102 0 -189 -49t-148 -131t-102 -179t-61 -201 q-16 -94 -18 -186z" />
<glyph unicode="R" horiz-adv-x="1158" d="M-12 23q4 21 12 29q28 0 78 9t58 23q14 28 38 148l166 854q19 95 19 135q0 7 -1 13q-2 14 -48 23t-74 9q-6 8 -2 29t14 29q190 -10 224 -10q30 0 117 2t147 2q64 0 125 -23t107 -64t67 -109q12 -39 12 -82q0 -33 -7 -68q-20 -102 -114 -192t-204 -130q80 -224 210 -478 q30 -58 71 -86t115 -34q3 -4 3 -12q0 -16 -15 -46q-184 0 -242 24l-8 3q-8 3 -10 4l-10 5q-8 4 -11 6t-11 7t-12 9t-11 10t-11 12t-10 14t-10 18q-48 92 -202 474q-12 24 -52 24h-98l-72 -372q-21 -101 -21 -138q0 -6 1 -10q0 -14 47 -23t75 -9q4 -8 0 -29t-12 -29 q-190 10 -214 10q-28 0 -222 -10q-4 5 -4 14q0 7 2 15zM420 666h100q120 0 219 72t121 186q9 48 9 90q0 84 -35 144q-52 90 -198 90q-88 0 -98 -20q-12 -20 -38 -150z" />
<glyph unicode="S" horiz-adv-x="944" d="M68 368q8 12 50 12q14 0 20 -12q0 -46 15 -97t46 -101t88 -83t129 -33q96 0 172 64t76 176q0 24 -3 45t-11 40t-13 33t-21 33t-22 27t-28 27t-28 25t-33 27t-31 25q-18 14 -61 46t-65 49t-54 51t-48 63t-29 73t-13 94q0 110 67 199t162 135t191 46q40 0 80 -5t61 -9 t68 -17t65 -17q-12 -144 -42 -288q-4 -14 -20 -14q-28 0 -42 14q1 20 1 38q0 102 -38 160q-45 68 -163 68q-114 0 -174 -68t-60 -154q0 -40 11 -75t24 -59t41 -53t45 -43t55 -42t54 -40q14 -10 65 -48t72 -58t54 -58t47 -81t14 -97q0 -118 -73 -213t-176 -142t-207 -47 q-118 0 -294 84q-18 72 -23 173q-3 56 -3 89q0 26 2 38z" />
<glyph unicode="T" horiz-adv-x="1174" d="M120 1012q56 144 116 344q6 3 13 3q12 0 27 -9q46 -28 100 -28h366h360q58 0 118 30q14 7 24 7q7 0 12 -3q-18 -220 -18 -344q-16 -16 -40 -14q-20 0 -24 10v12q0 101 -31 163q-33 65 -99 65h-236l-198 -1016q-21 -101 -21 -138q0 -6 1 -10q2 -14 48 -23t74 -9 q4 -8 1 -29t-11 -29q-190 10 -216 10t-222 -10q-6 8 -1 29t13 29q28 0 78 9t56 23q14 28 38 148l198 1016h-240q-132 0 -224 -240q-6 -10 -28 -10q-22 -2 -34 14z" />
<glyph unicode="U" horiz-adv-x="1364" d="M196 502l114 584q21 101 21 138q0 6 -1 10q-2 14 -48 23t-74 9q-6 8 -2 29t14 29q190 -10 216 -10q24 0 220 10q4 -8 0 -29t-12 -29q-28 0 -78 -9t-56 -23q-14 -28 -38 -148l-96 -494q-21 -104 -21 -185q0 -100 31 -167q62 -132 242 -132q354 0 446 440l106 542 q12 65 12 103q0 23 -4 35q-6 14 -53 27t-73 13q-10 22 8 58q184 -10 204 -10q38 0 68 2t67 4t69 4q3 -9 3 -18q0 -19 -13 -40q-26 0 -84 -12t-70 -28q-26 -34 -44 -136l-106 -540q-56 -288 -213 -424t-385 -136q-214 0 -316 144q-68 96 -68 232q0 63 14 134z" />
<glyph unicode="V" horiz-adv-x="1192" d="M124 1266q-2 0 1 14l6 28q3 14 5 16q210 -10 214 -10q42 0 232 10q2 -10 -3 -33t-11 -25q-12 0 -36 -4t-53 -20t-35 -42q-2 -11 -2 -29q0 -40 10 -113q20 -152 68 -471t50 -319l446 780q52 86 60 140q6 28 -17 48t-47 25t-42 5q-6 2 -2 26t12 32q170 -10 196 -10 q38 0 66 2t60 4t58 4q2 -3 2 -9q0 -9 -4 -24q-6 -25 -12 -25q-20 0 -62 -13t-68 -39q-44 -46 -132 -202l-546 -948q-36 -68 -84 -68q-4 0 -12 32q-24 154 -73 473t-85 527q-18 124 -48 192q-8 22 -47 34t-65 12z" />
<glyph unicode="W" horiz-adv-x="1682" d="M130 1266q-2 0 1 14l6 28q3 14 5 16q32 -2 68 -4t66 -4t68 -2q36 0 226 10q2 -10 -4 -33t-12 -25q-12 0 -36 -4t-53 -20t-35 -42v-13q0 -27 4 -97q6 -128 60 -800l458 968q14 26 39 46t41 20q8 0 16 -32q14 -152 118 -1002l340 758q44 98 50 140q6 28 -19 48t-50 25 t-43 5q-6 2 -1 26t13 32q170 -10 198 -10q38 0 66 2t60 4t58 4q2 -3 2 -9q0 -9 -4 -24q-6 -25 -12 -25q-14 0 -57 -15t-73 -37q-40 -32 -96 -152l-466 -998q-10 -26 -37 -47t-47 -21q-12 0 -12 32q-24 218 -67 554t-55 436l-456 -954q-12 -26 -37 -47t-45 -21q-4 0 -9 12 t-5 20l-96 1036q0 8 -1 28t-2 27t-2 22t-3 21t-4 17t-5 18t-7 15t-10 14q-12 18 -46 29t-56 11z" />
<glyph unicode="X" horiz-adv-x="1240" d="M-118 -6q-2 8 4 30t10 28q16 0 45 4t80 24t79 52l478 532l-178 432q-20 56 -41 85t-55 53q-44 32 -98 32q-4 2 -3 13t5 26t10 19q226 -10 230 -10q50 0 240 10q2 -10 -2 -34t-12 -24q-32 0 -74 -15t-50 -49q-4 -22 10 -60l148 -358q300 338 342 400q14 22 16 32 q2 8 -5 18t-37 20t-78 10q-4 2 -1 24t9 34q124 -10 198 -10q92 0 206 10q2 -4 2 -10q0 -8 -3 -19q-5 -21 -15 -29q-14 0 -38 -4t-67 -24t-73 -52l-428 -462l246 -590q18 -40 66 -60t100 -20q4 -6 -1 -29t-9 -29q-184 10 -188 10q-14 0 -274 -10q-6 8 -1 33t11 25q26 0 71 16 t49 40q2 6 -4 24l-192 468q-332 -376 -396 -468q-14 -22 -16 -32q0 -8 10 -18t42 -20t78 -10q4 -8 0 -30t-8 -28q-170 10 -208 10q-40 0 -230 -10z" />
<glyph unicode="Y" horiz-adv-x="1112" d="M114 1279q0 11 5 26t11 19q226 -10 230 -10q50 0 240 10q2 -10 -3 -34t-11 -24q-34 0 -76 -15t-48 -49q-4 -16 10 -60l160 -478q92 130 207 302t141 218q10 14 12 30q2 8 -7 19t-40 21t-79 10q-4 4 0 28t8 30q170 -10 190 -10q16 0 206 10q0 -6 -6 -32t-10 -26 q-120 0 -178 -80l-410 -582q-8 -12 -20 -62l-62 -308q-21 -101 -21 -138q0 -6 1 -10q2 -14 48 -23t74 -9q6 -8 2 -29t-12 -29q-190 10 -216 10t-222 -10q-6 8 -1 29t13 29q28 0 78 9t56 23q14 28 38 148l58 302q4 34 -2 56l-166 506q-18 54 -39 84t-57 54q-44 32 -98 32 q-4 2 -4 13z" />
<glyph unicode="Z" horiz-adv-x="1204" d="M-20 28l1032 1222l-458 -2q-92 0 -170 -69t-134 -195q-4 -8 -22 -8q-10 0 -26 6t-20 10q66 118 128 346q102 -16 150 -16h362q132 0 394 20q8 -2 18 -18q7 -11 7 -20q0 -3 -1 -6q-2 -8 -167 -209t-417 -499t-442 -516h488q122 0 212 96q46 50 112 174q4 6 26 6 q30 0 42 -18q-94 -196 -146 -332h-940q-14 0 -24 10q-6 6 -6 12q0 3 2 6z" />
<glyph unicode="[" horiz-adv-x="520" d="M14 -182l308 1616q0 4 4 13t16 21t26 12q90 0 195 9l105 9q10 0 10 -12q0 -10 -3 -20t-8 -18t-12 -15t-12 -11t-9 -7l-4 -3q-92 -22 -192 -22q-4 0 -8 -4t-6 -8l-2 -4l-288 -1472q-2 -14 10 -16q50 -6 108 -22t78 -28q6 -4 16 -17t10 -25l-14 -30q-162 32 -314 32 q-18 0 -14 22z" />
<glyph unicode="\" horiz-adv-x="736" d="M230 1510q10 14 28 14q28 0 49 -26t25 -48l248 -1458q4 -22 -16 -47t-38 -25q-16 0 -24 6z" />
<glyph unicode="]" horiz-adv-x="516" d="M-116 -210q0 22 40 62q98 34 192 34q6 0 10 4t6 8l2 4l286 1472q2 16 -10 16l-184 22q-24 24 -24 44q0 42 16 42l18 -2q16 -2 44 -5t64 -5t81 -4t89 -2q26 0 26 -30q0 -10 -2 -16l-308 -1592q0 -4 -3 -13t-14 -21t-27 -12l-294 -24q-8 6 -8 18z" />
<glyph unicode="^" horiz-adv-x="606" d="M26 998q4 8 56 51t128 125t138 180l5 10l4 8q1 2 3 4t5 3t7 1q20 0 26 -13t25 -69t51 -122q12 -26 42 -68t53 -73t23 -35q-4 -16 -14 -33t-20 -17q-28 0 -105 93t-109 151q-66 -78 -174 -161t-128 -83q-16 0 -16 48z" />
<glyph unicode="_" horiz-adv-x="950" d="M-78 -74q0 10 19 55t29 45h828q12 0 12 -8q0 -12 -36 -92l-12 -12h-830q-10 0 -10 12z" />
<glyph unicode="`" horiz-adv-x="324" d="M40 1318q0 10 5 21t26 23t53 12q50 0 60 -18q52 -84 120 -272q0 -10 -9 -20t-19 -10q-22 0 -129 105t-107 159z" />
<glyph unicode="a" d="M38 226q0 126 55 247t139 206t186 138t192 53q86 0 156 -26l-122 -632q-8 -32 -8 -64q0 -50 20 -50q10 0 25 8t29 20t30 28t27 28t21 22l8 10q4 0 12 -15t8 -23q-24 -42 -112 -115t-150 -73q-32 0 -50 29t-18 75q0 32 14 106q8 48 10 62q-46 -84 -132 -177t-162 -93 q-80 0 -129 65t-49 171zM186 302q0 -196 102 -196q72 0 161 146t119 296l42 212q-26 30 -92 30q-116 0 -224 -158t-108 -330z" />
<glyph unicode="b" horiz-adv-x="858" d="M86 222q0 22 12 94l158 802q18 82 18 106q0 38 -122 38q-4 6 -1 21t9 21q110 10 264 66q12 -8 12 -38q0 -20 -26 -150l-124 -612q94 156 191 228t159 72q68 0 104 -60t36 -166q0 -172 -82 -327t-198 -242t-224 -87q-86 0 -136 62t-50 172zM236 312q-13 -67 -13 -117 q0 -141 105 -141q78 0 151 105t111 232t38 213q0 156 -78 156q-68 0 -176 -145t-138 -303z" />
<glyph unicode="c" horiz-adv-x="718" d="M48 280q0 228 168 409t334 181q64 0 124 -50q18 -24 18 -54q0 -38 -18 -64t-50 -26q-48 0 -72 40q-44 72 -104 72q-88 0 -166 -136t-78 -328q0 -218 138 -218q16 0 34 6t35 15t34 21t31 24t28 25t22 22t14 17l8 8q4 0 14 -16t10 -24q-30 -50 -125 -133t-177 -83 q-106 0 -164 76t-58 216z" />
<glyph unicode="d" d="M38 232q0 232 185 435t383 203h10h16l46 248q2 12 7 36t8 42t3 28q0 38 -122 38q-4 6 -1 21t9 21q110 10 264 66q12 -8 12 -38q0 -20 -26 -150l-188 -970q-8 -32 -8 -66q0 -48 20 -48q10 0 25 8t29 20t30 28t27 28t21 22l8 10q4 0 12 -15t8 -23q-24 -42 -112 -115 t-150 -73q-32 0 -50 29t-18 75q0 32 14 106q4 16 10 62q-36 -74 -127 -172t-169 -98q-86 0 -131 72t-45 170zM186 300q0 -194 102 -194q74 0 162 147t118 299l24 130q1 9 1 18q0 28 -14 55q-19 35 -57 35q-120 0 -228 -158t-108 -332z" />
<glyph unicode="e" horiz-adv-x="726" d="M46 278q0 218 163 405t339 187q70 0 101 -36t31 -88q0 -88 -94 -176t-204 -136t-176 -48q-4 -12 -4 -64q0 -216 138 -216q16 0 34 6t35 15t34 21t31 24t28 25t22 22t16 17l6 8q4 0 14 -16t10 -24q-32 -54 -127 -135t-177 -81q-106 0 -163 75t-57 215zM210 436 q76 0 199 86t123 186q0 38 -26 59t-58 21q-92 0 -160 -125t-78 -227z" />
<glyph unicode="f" horiz-adv-x="592" d="M-248 -416q0 16 2 32q12 80 58 80q34 0 76 -46q30 -30 58 -30q56 0 93 101t87 357l120 674h-170q-4 0 -4 6q0 18 30 43t62 25h94q46 238 168 391t246 153q82 0 108 -50v-18q-8 -94 -60 -94q-34 0 -76 46q-30 30 -58 30q-56 0 -93 -101t-87 -357h200q10 0 10 -24 q0 -22 -18 -50h-206q-70 -414 -118 -666q-46 -240 -168 -396t-246 -156q-82 0 -108 50z" />
<glyph unicode="g" horiz-adv-x="824" d="M-96 -270q0 150 288 282l-36 24q-50 34 -50 72q0 34 71 78t129 58q-64 0 -145 64t-81 170q0 164 117 279t261 115q78 0 170 -44q12 -6 37 0t53 17t36 13q24 -8 53 -30t29 -40q0 -28 -24 -28q-4 0 -67 2q-32 1 -51.5 1t-27.5 -1q0 -2 8 -27t14 -56t6 -55q0 -74 -21 -137 t-56 -103t-58 -60t-47 -34t-87 -39t-103 -46t-40 -41t63 -45t138 -51t138 -85t63 -139q0 -142 -127 -226t-341 -84q-138 0 -225 52t-87 144zM52 -220q0 -86 80 -128t206 -42q94 0 156 45t62 109q0 44 -28 81t-80 65t-92 43t-98 33q-206 -88 -206 -206zM230 494 q0 -80 31 -135t91 -55q82 0 138 91t56 193q0 82 -34 150t-88 68q-90 0 -142 -98t-52 -214z" />
<glyph unicode="h" horiz-adv-x="940" d="M44 0l216 1118q2 12 7 36t8 42t3 28q0 38 -122 38q-4 6 -1 21t9 21q110 10 264 66q12 -8 12 -38q0 -20 -26 -150l-102 -522l-36 -184q42 80 178 237t220 157q110 0 110 -132q0 -86 -28 -218l-66 -308q-8 -32 -8 -64q0 -50 20 -50q10 0 25 8t29 20t30 28t27 28t19 22 l10 10q4 0 12 -15t8 -23q-24 -42 -112 -115t-150 -73q-32 0 -50 29t-18 75q0 48 14 106l70 330q14 64 14 108q0 86 -38 86t-113 -70t-149 -188t-96 -226q-14 -72 -50 -238q-26 -8 -72 -8q-36 0 -68 8z" />
<glyph unicode="i" horiz-adv-x="524" d="M50 682q26 44 108 116t144 72q32 0 55 -30t23 -74q0 -32 -14 -106l-102 -448q-8 -40 -8 -64q0 -50 20 -50q10 0 25 8t29 20t30 28t27 28t21 22l8 10q4 0 12 -15t8 -23q-24 -42 -112 -115t-150 -73q-32 0 -50 29t-18 75q0 32 14 106l102 448q8 48 8 64q0 50 -20 50 q-10 0 -25 -8t-29 -20t-30 -28t-27 -28t-19 -22l-10 -10q-4 0 -12 15t-8 23zM232 1178q0 46 30 80t74 34q30 0 51 -24t21 -56q0 -48 -31 -84t-77 -36q-32 0 -50 25t-18 61z" />
<glyph unicode="j" horiz-adv-x="498" d="M-170 -430q100 58 176 183t108 291l120 602q8 48 8 64q0 50 -20 50q-10 0 -25 -8t-29 -20t-30 -28t-27 -28t-19 -22l-10 -10q-4 0 -12 15t-8 23q26 44 108 116t144 72q32 0 55 -30t23 -74q0 -32 -14 -106l-110 -570q-40 -202 -142 -338q-58 -76 -138 -137t-140 -85 q-18 14 -18 40zM266 1178q0 46 30 80t74 34q30 0 51 -24t21 -56q0 -48 -31 -84t-77 -36q-32 0 -50 25t-18 61z" />
<glyph unicode="k" horiz-adv-x="920" d="M44 0l218 1118q18 82 18 106q0 38 -122 38q-4 6 -1 21t9 21q110 10 264 66q12 -8 12 -38q0 -20 -26 -150l-104 -538l22 26q22 26 53 57t72 65t92 56t99 22q60 0 105 -39t45 -97q0 -128 -118 -204t-304 -108q132 -198 192 -259t122 -61q22 0 67 41t69 71q4 0 12 -15t8 -23 q-22 -38 -105 -111t-139 -73q-44 0 -86 24t-80 74t-63 90t-63 109t-52 93l-74 -382q-36 -10 -70 -10q-32 0 -72 10zM276 460q122 0 245 68t123 180q0 68 -66 68q-84 0 -183 -110t-119 -206z" />
<glyph unicode="l" horiz-adv-x="486" d="M74 92q0 32 14 106l180 920q18 82 18 106q0 38 -122 38q-4 6 -1 21t9 21q110 10 264 66q12 -8 12 -38q0 -20 -26 -150l-190 -970q-8 -32 -8 -64q0 -50 20 -50q10 0 25 8t29 20t30 28t27 28t21 22l8 10q4 0 12 -15t8 -23q-24 -42 -112 -115t-150 -73q-32 0 -50 29t-18 75z " />
<glyph unicode="m" horiz-adv-x="1428" d="M44 682q26 44 108 116t144 72q32 0 55 -30t23 -74q0 -22 -16 -106q-10 -48 -40 -186q76 134 182 265t174 131q134 0 134 -190q0 -98 -28 -178q66 116 182 242t186 126q124 0 124 -132q0 -90 -28 -218l-66 -308q-8 -40 -8 -64q0 -50 20 -50q10 0 25 8t29 20t30 28t27 28 t19 22l10 10q4 0 12 -15t8 -23q-24 -42 -112 -115t-150 -73q-32 0 -50 29t-18 75q0 32 14 106l70 330q14 64 14 108q0 30 -2 46t-10 28t-26 12q-66 0 -194 -158t-154 -300l-50 -264q-8 0 -33 -3t-41 -3t-39 3t-31 3l112 568q8 42 8 76q0 78 -40 78q-68 0 -190 -168 t-152 -310l-50 -244q-56 -8 -72 -8q-14 0 -70 8l132 646q8 48 8 64q0 50 -20 50q-10 0 -25 -8t-29 -20t-30 -28t-27 -28t-21 -22l-8 -10q-4 0 -12 15t-8 23z" />
<glyph unicode="n" horiz-adv-x="994" d="M44 682q26 44 108 116t144 72q32 0 55 -30t23 -74q0 -38 -16 -106l-36 -168q40 78 173 228t219 150q124 0 124 -132q0 -82 -28 -218l-66 -308q-8 -40 -8 -64q0 -50 20 -50q10 0 25 8t29 20t30 28t27 28t21 22l8 10q4 0 12 -15t8 -23q-24 -42 -112 -115t-150 -73 q-32 0 -50 29t-18 75q0 32 14 106l70 330q14 64 14 108q0 30 -2 46t-10 28t-26 12q-68 0 -203 -154t-167 -324q-8 -40 -50 -244q-56 -8 -72 -8q-14 0 -70 8l132 646q8 48 8 64q0 50 -20 50q-10 0 -25 -8t-29 -20t-30 -28t-27 -28t-21 -22l-8 -10q-4 0 -12 15t-8 23z" />
<glyph unicode="o" horiz-adv-x="828" d="M48 276q0 214 142 404t312 190q116 0 175 -80t59 -214q0 -212 -143 -399t-313 -187q-116 0 -174 76t-58 210zM204 316q0 -120 30 -191t84 -71q78 0 140 83t92 193t30 216q0 260 -106 260q-116 0 -193 -160t-77 -330z" />
<glyph unicode="p" horiz-adv-x="896" d="M-102 -412q54 0 80 32q20 24 32 86l158 794l-96 -96q-12 16 -12 40q0 8 6 14l118 126l52 282q30 8 76 8q36 0 64 -14q-24 -118 -32 -168q192 178 296 178q174 0 174 -242q0 -152 -74 -301t-192 -243t-238 -94q-76 0 -92 26l-66 -306q-6 -26 -6 -56q0 -10 8 -26t20 -20 q26 -6 94 -6q6 -2 4 -28t-10 -28q-12 0 -35 1t-35 1q-146 0 -296 -18q-5 2 -5 21q0 32 7 37zM258 262q-5 -29 -5 -54q0 -50 20 -89q31 -59 79 -59q82 0 156 87t116 213t42 246q0 154 -106 154q-48 0 -121 -51t-115 -109z" />
<glyph unicode="q" horiz-adv-x="852" d="M38 232q0 232 185 435t383 203q88 0 158 -26l-122 -632l-92 -512q-4 -32 -4 -42q0 -18 4 -29t26 -21t62 -10q4 0 5 -12t-2 -26t-7 -16q-14 0 -41 1t-39 1q-152 0 -300 -16q-4 2 -3 28t9 26q124 12 136 74l112 602q-46 -84 -132 -177t-162 -93q-86 0 -131 72t-45 170z M186 300q0 -194 102 -194q74 0 162 147t118 299l24 130q1 9 1 18q0 28 -14 55q-19 35 -57 35q-120 0 -228 -158t-108 -332z" />
<glyph unicode="r" horiz-adv-x="712" d="M42 682q26 44 108 116t144 72q32 0 55 -30t23 -74q0 -22 -16 -106q-10 -54 -34 -168q52 126 140 252t152 126q60 0 98 -42q18 -22 18 -56q0 -40 -19 -64t-53 -24t-60 30q-12 16 -40 16q-56 0 -153 -167t-125 -319l-44 -244q-32 -6 -68 -6q-38 0 -74 6l120 646q8 48 8 64 q0 50 -20 50q-10 0 -25 -8t-29 -20t-30 -28t-27 -28t-19 -22l-10 -10q-4 0 -12 15t-8 23z" />
<glyph unicode="s" horiz-adv-x="644" d="M4 108q0 42 21 67t53 25q18 0 30 -10t32 -42t24 -38q42 -58 106 -58q54 0 76 37t22 79q0 32 -19 69t-32 53t-53 62q-48 54 -71 83t-48 82t-25 107q0 92 80 172t198 80q110 0 172 -54q20 -28 20 -64q0 -34 -19 -58t-49 -24q-44 0 -94 70q-2 2 -7 10t-7 11t-7 9t-8 9t-9 8 t-11 7t-12 4t-15 3t-18 1q-48 0 -73 -37t-25 -75q0 -22 6 -44t24 -47t27 -37t39 -44t36 -40q122 -142 122 -250q0 -110 -81 -178t-209 -68q-106 0 -176 60q-20 34 -20 60z" />
<glyph unicode="t" horiz-adv-x="556" d="M82 758q0 18 30 43t62 25h60l22 118q24 30 72 81t58 51q18 0 34 -12l-44 -238h150q10 0 10 -24q0 -22 -18 -50h-156l-106 -540q-8 -40 -8 -64q0 -50 20 -50q10 0 25 8t29 20t30 28t27 28t21 22l8 10q4 0 12 -15t8 -23q-24 -42 -112 -115t-150 -73q-32 0 -50 29t-18 75 q0 32 14 106l108 554h-134q-4 0 -4 6z" />
<glyph unicode="u" horiz-adv-x="982" d="M40 682q26 44 108 116t144 72q32 0 55 -30t23 -74q0 -32 -14 -106l-70 -330q-14 -62 -14 -108q0 -86 38 -86t113 71t149 193t96 238q16 88 44 220q26 8 62 8q46 0 78 -8l-124 -646q-8 -40 -8 -64q0 -50 20 -50q10 0 25 8t29 20t30 28t27 28t21 22l8 10q4 0 12 -15t8 -23 q-24 -42 -112 -115t-150 -73q-32 0 -50 29t-18 75q0 32 14 106q6 30 11 57t13 60t12 57q-48 -104 -180 -244t-222 -140q-100 0 -100 144q0 70 28 206l66 308q8 48 8 64q0 50 -20 50q-10 0 -25 -8t-29 -20t-30 -28t-27 -28t-21 -22l-8 -10q-4 0 -12 15t-8 23z" />
<glyph unicode="v" horiz-adv-x="878" d="M34 682q26 44 108 116t144 72q32 0 55 -32t23 -76v-106v-304q0 -166 8 -222q102 88 154 155t102 167t50 214q0 74 -52 126q10 30 36 54t58 24q54 0 82 -44t28 -116q0 -90 -74 -219t-174 -238t-201 -187t-151 -78q-16 18 -16 308v414q0 50 -20 50q-10 0 -25 -8t-29 -20 t-30 -28t-27 -28t-19 -22l-10 -10q-4 0 -12 15t-8 23z" />
<glyph unicode="w" horiz-adv-x="1258" d="M34 682q26 44 108 116t144 72q32 0 55 -32t23 -76v-106v-304q0 -116 8 -172q100 108 226 330q34 62 86 184q36 44 86 56q6 -270 12 -384q8 -180 30 -214q152 132 214 306q28 76 28 208q0 74 -52 126q10 30 36 54t58 24q54 0 82 -44t28 -116q0 -118 -103 -294t-230 -302 t-195 -126q-10 10 -24 133t-16 179l-4 128q-308 -440 -404 -440q-16 18 -16 308v414q0 50 -20 50q-10 0 -25 -8t-29 -20t-30 -28t-27 -28t-19 -22l-10 -10q-4 0 -12 15t-8 23z" />
<glyph unicode="x" horiz-adv-x="964" d="M6 92q0 36 17 65t51 29q50 0 74 -44q18 -36 52 -36q24 0 54 52l144 244l-86 282q-22 76 -82 76q-22 0 -67 -41t-69 -71q-4 0 -12 15t-8 23q22 38 105 111t139 73q44 0 79 -49t57 -123l48 -162l120 206q74 128 160 128q60 0 118 -48q18 -36 18 -52q0 -36 -17 -65t-51 -29 q-50 0 -74 44q-18 36 -52 36q-24 0 -54 -52l-144 -244l86 -282q22 -76 82 -76q22 0 67 41t69 71q4 0 12 -15t8 -23q-22 -38 -105 -111t-139 -73q-44 0 -79 49t-57 123l-48 162l-120 -206q-74 -128 -160 -128q-60 0 -118 48q-18 36 -18 52z" />
<glyph unicode="y" horiz-adv-x="894" d="M-222 -384q0 64 46 88q22 -14 74 -26t86 -12q158 0 272 166q14 20 22 46t11 64t4 59q0 10 0.5 27.5t-0.5 41.5q-1 48 -1 54q0 98 -5 198t-18 204t-38 169t-59 65q-10 0 -25 -8t-29 -20t-30 -28t-27 -28t-21 -22l-8 -10q-4 0 -12 15t-8 23q26 44 108 116t144 72 q60 0 100 -107t55 -274t19 -269t4 -190q80 98 155 247t75 293q0 118 -50 214q26 86 100 86q88 0 88 -158q0 -220 -172 -505t-389 -479t-351 -194q-52 0 -86 24t-34 58z" />
<glyph unicode="z" horiz-adv-x="774" d="M-20 38q0 14 150 178t302 326t152 164q-64 -42 -126 -42q-42 0 -122 34q-72 34 -108 34q-20 0 -41 -20t-34 -41t-27 -47t-16 -28q-20 0 -24 32q16 54 80 148t124 94q42 0 154 -40q62 -22 112 -22q44 0 112 32l68 30q22 -10 22 -40q0 -10 -89 -112t-195 -218t-198 -215 t-92 -101q44 22 92 22q52 0 124 -34q80 -34 106 -34q18 0 39 19t34 40t27 47t16 28q20 0 24 -32q-108 -240 -210 -240q-46 0 -160 44q-54 20 -142 20q-26 0 -49 -11t-47 -29t-36 -24q-18 6 -22 38z" />
<glyph unicode="{" horiz-adv-x="420" d="M36 108q14 66 74 166q64 106 72 150q26 130 -108 168q-2 8 0 22q6 18 8 22q150 40 174 168q4 14 5 29t-2 33t-4 27t-6 32t-7 29q-22 100 -10 166q26 132 109 230t159 128q12 0 20 -12t4 -26q-52 -24 -115 -90t-77 -134q-2 -14 -3 -28t-2 -24t0 -25t2 -21t4 -22t3 -20 t4 -22t4 -20q24 -98 7 -186t-74 -151t-107 -83q44 -20 76 -83t14 -151q-16 -88 -80 -186q-2 -4 -12 -21t-13 -21t-11 -19t-12 -23t-10 -22t-9 -24t-7 -24l-8 -28q-12 -68 25 -134t79 -90q-2 -14 -14 -26t-24 -12q-66 30 -110 128t-18 230z" />
<glyph unicode="|" horiz-adv-x="414" d="M0 -230l338 1744q32 32 88 32q12 0 22 -4t8 -10l-336 -1744q-12 -12 -38 -23t-54 -11q-10 0 -20 5t-8 11z" />
<glyph unicode="}" horiz-adv-x="424" d="M-72 -212q54 24 117 90t75 134q4 14 5 28t2 24t0 25t-2 21t-4 22t-3 20t-4 22t-6 20q-22 98 -5 186t74 151t105 83q-42 20 -74 83t-16 151q18 88 80 186q2 4 13 21t13 21t11 19t12 23t10 22t10 24t7 24t6 28q14 68 -23 134t-81 90q4 14 15 26t21 12q68 -30 112 -128 t18 -230q-12 -66 -74 -166q-62 -106 -72 -150q-24 -130 108 -168q4 -8 0 -22q-2 -14 -8 -22q-148 -40 -174 -168q-2 -14 -3 -29t2 -33t4 -27t6 -32t5 -29q24 -100 10 -166q-26 -132 -109 -230t-161 -128q-10 0 -17 12t-5 26z" />
<glyph unicode="~" horiz-adv-x="1090" d="M118 538q0 56 95 113t181 57q88 0 208 -53t208 -53q34 0 70 15t53 27t63 46q12 -12 12 -20q0 -50 -85 -110t-185 -60q-88 0 -211 53t-211 53q-34 0 -70 -15t-53 -27t-63 -46q-12 12 -12 20z" />
<glyph unicode="&#xa1;" horiz-adv-x="406" d="M-74 -446q0 32 66 286q88 344 172 672q4 20 14 34t18 10q34 -18 34 -42q-120 -912 -122 -926q-10 -52 -39 -89t-69 -37q-36 0 -55 26t-19 66zM142 738q0 56 40 99t90 43q38 0 62 -27t24 -67q0 -56 -40 -97t-90 -41q-38 0 -62 25t-24 65z" />
<glyph unicode="&#xa2;" horiz-adv-x="716" d="M36 280q0 228 168 409t334 181q64 0 124 -50q18 -24 18 -54q0 -38 -18 -64t-50 -26q-48 0 -72 40q-44 72 -104 72q-88 0 -166 -136t-78 -328q0 -218 138 -218q16 0 34 6t35 15t34 21t31 24t28 25t22 22t14 17l8 8q4 0 14 -16t10 -24q-30 -50 -125 -133t-177 -83 q-106 0 -164 76t-58 216zM156 -72l352 1020q64 0 62 -16l-352 -1022q-64 0 -62 18z" />
<glyph unicode="&#xa3;" horiz-adv-x="894" d="M-4 20q24 34 63 80t53 64q50 104 90 310q8 40 16 167t20 193q36 188 163 312t277 124q98 0 128 -74q0 -42 -22 -80t-56 -38q-24 0 -42 17t-27 37t-27 37t-44 17q-44 0 -79 -24t-58 -69t-37 -90t-26 -103q-12 -62 -24 -210t-20 -194q-36 -186 -170 -320q10 4 20 6t26 3 t26 1h36h42q54 0 151 -32t129 -32q28 0 57 19t43 35t38 52t26 40q6 0 12 -10t6 -24q0 -10 -4 -18q-126 -232 -264 -232q-64 0 -181 37t-159 37q-64 0 -154 -76q-16 0 -23 13t-5 25zM100 560q-12 32 34 78h488q2 -2 0 -17t-12 -35t-22 -26h-488z" />
<glyph unicode="&#xa4;" horiz-adv-x="1008" d="M72 308l120 102q-24 58 -24 126q0 174 124 310l-74 112q0 2 -1 2t-1 2q0 16 34 43t66 35l74 -110q96 62 202 62q116 0 192 -82l132 110q2 2 8 2q16 0 33 -29t19 -61l-134 -112q22 -60 22 -126q0 -160 -112 -296l78 -116q0 -2 1 -2t1 -2q0 -16 -34 -43t-66 -35l-74 110 q-102 -70 -212 -70q-120 0 -196 80l-118 -100q-2 -2 -8 -2q-16 0 -33 29t-19 61zM308 546q0 -106 46 -174t120 -68q100 0 176 118t76 260q0 106 -46 175t-118 69q-100 0 -177 -119t-77 -261z" />
<glyph unicode="&#xa5;" horiz-adv-x="1184" d="M172 1220q0 10 4 25t10 19q216 -10 220 -10q50 0 230 10q2 -10 -2 -33t-12 -23q-32 0 -71 -14t-47 -46q-4 -16 10 -58l152 -458q88 122 198 287t134 211q10 14 12 28q2 8 -6 18t-38 20t-76 10q-4 4 0 27t8 29q160 -10 180 -10q18 0 198 10q0 -6 -6 -31t-10 -25 q-114 0 -170 -76l-392 -556q-6 -10 -10 -19t-5 -22t-3 -17l-60 -294q-22 -108 -18 -142q2 -14 45 -22t71 -8q6 -8 3 -28t-13 -28q-180 10 -206 10t-212 -10q-6 8 -1 28t13 28q30 0 76 8t52 22q12 20 36 142l56 288q6 32 -2 54l-160 482q-18 52 -37 81t-53 51q-38 30 -94 30 q-4 2 -4 12zM308 292q0 12 8 32t18 28h492q6 0 6 -14q0 -38 -24 -62h-492q-8 0 -8 16zM338 448q0 12 9 32t17 28h492q6 0 6 -14q0 -38 -24 -62h-492q-8 0 -8 16z" />
<glyph unicode="&#xa6;" horiz-adv-x="422" d="M4 -230l140 726q32 32 88 32q12 0 22 -4t8 -10l-138 -726q-12 -12 -38 -23t-54 -11q-10 0 -20 5t-8 11zM200 782l140 726q32 32 88 32q12 0 22 -4t8 -10l-138 -726q-30 -34 -90 -34q-10 0 -21 5t-9 11z" />
<glyph unicode="&#xa7;" horiz-adv-x="790" d="M34 -88q4 22 31 47t49 25t62 -24q28 -16 56 -16q52 0 107 28t65 80q20 108 -162 332q-176 214 -136 408q18 100 136 239t196 189q-4 -8 -7 -21t-7 -23t-10 -20q-12 -16 -31 -34t-33 -28l-12 -10q-8 -10 -31 -40t-30 -41t-21 -34t-21 -43t-11 -46q-38 -196 130 -400 q6 -8 22 -27t24 -29t23 -30t23 -32t20 -32t19 -36t14 -37t9 -39t2 -39t-4 -43q-26 -124 -136 -208t-262 -84q-42 0 -74 16q-6 18 0 52zM297 971q1 21 5 43q24 124 134 208t264 84q42 0 74 -16q4 -18 0 -52q-6 -22 -33 -47t-47 -25q-24 0 -62 24q-28 16 -58 16 q-54 0 -108 -28t-62 -80q-22 -108 162 -332q174 -214 136 -408q-20 -100 -138 -239t-194 -189q2 8 5 21t7 23t12 20q10 16 29 34t33 28l14 10q8 10 30 40t29 41t21 34t21 43t13 46q36 196 -130 400q-8 8 -24 27t-24 29t-23 30t-23 32t-20 32t-18 36t-13 37t-10 39t-2 39z " />
<glyph unicode="&#xa8;" horiz-adv-x="570" d="M38 1042q0 46 29 79t73 33q30 0 52 -24t22 -56q0 -48 -31 -84t-77 -36q-32 0 -50 26t-18 62zM376 1042q0 46 29 79t73 33q30 0 52 -24t22 -56q0 -48 -31 -84t-77 -36q-32 0 -50 26t-18 62z" />
<glyph unicode="&#xa9;" horiz-adv-x="1206" d="M114 572q0 258 192 458t432 200q182 0 297 -123t115 -311q0 -258 -193 -458t-433 -200q-182 0 -296 123t-114 311zM174 584q0 -166 102 -275t262 -109q210 0 382 177t172 405q0 166 -103 276t-263 110q-210 0 -381 -178t-171 -406zM358 614q0 134 98 243t228 109 q116 0 200 -38q4 -8 4 -16q2 -28 2 -100q0 -24 -32 -24q-8 0 -12 4q0 12 -6 28t-20 35t-47 31t-79 12q-86 0 -156 -79t-70 -189q0 -84 47 -130t109 -46q42 0 75 8t51 23t28 26t18 28t10 19q4 2 8 2l28 -8q-6 -16 -30 -68t-32 -56q-94 -38 -204 -38q-96 0 -157 63t-61 161z " />
<glyph unicode="&#xaa;" horiz-adv-x="760" d="M118 664q0 174 146 312t294 138q66 0 120 -18l-94 -442q-6 -18 -6 -44q0 -34 14 -34q30 0 110 80q4 0 9 -10t5 -16q-18 -28 -86 -80t-116 -52q-24 0 -38 21t-14 53q0 24 10 74q2 16 6 28t4 14q-38 -60 -104 -124t-124 -64q-62 0 -99 45t-37 119zM232 718q0 -138 78 -138 q56 0 124 102t92 208l32 148q-20 20 -70 20q-88 0 -172 -110t-84 -230z" />
<glyph unicode="&#xab;" horiz-adv-x="968" d="M54 484q0 30 30 48q78 44 149 91t100 68t106 82t93 73q32 -8 36 -30q-10 -24 -336 -318q208 -300 208 -316q-12 -20 -42 -36q-46 60 -141 151t-183 159q-20 14 -20 28zM414 484q0 30 30 48q78 44 149 91t100 68t106 82t93 73q32 -8 36 -30q-10 -24 -336 -318 q208 -300 208 -316q-12 -20 -42 -36q-46 60 -141 151t-183 159q-20 14 -20 28z" />
<glyph unicode="&#xac;" horiz-adv-x="1080" d="M98 656q0 24 14 41t28 17h846l-94 -484q-24 -24 -70 -24q-12 0 -21 4t-7 12l74 406h-764q-6 16 -6 28z" />
<glyph unicode="&#xad;" horiz-adv-x="742" d="M106 428q0 20 14 56t28 38l454 24q12 0 12 -24q0 -22 -16 -61t-30 -41l-452 -22q-10 0 -10 30z" />
<glyph unicode="&#xae;" horiz-adv-x="1206" d="M149 814q43 226 223 386t391 160t329 -160t75 -386t-224 -387t-392 -161t-328 161t-74 387zM211 814q-39 -200 65 -342t289 -142t345 142t199 342t-66 341t-290 141t-344 -141t-198 -341zM370 560q0 2 3 5t3 5l36 6q12 2 19 11t8 13t5 25t6 35l66 338q8 44 8 58 q0 12 -15 19t-29 7q-4 0 -4 4t3 11t3 9q12 0 40 -3t46 -3q28 0 71 4t69 4q62 0 105 -32t43 -90q0 -100 -116 -158q-2 -2 -2 -6v-2q8 -44 64 -154q18 -34 28 -51t28 -30t38 -13q0 -14 -4 -22q-12 -6 -36 -6q-84 0 -121 44t-101 208q-6 18 -34 18q-22 0 -26 -16l-34 -178v-22 q0 -14 6 -16q24 -12 38 -12q2 0 2 -6q0 -4 -4 -20q-76 4 -100 4q-26 0 -110 -4q0 4 -1 8t-1 8zM588 880q0 -24 76 -24q46 0 73 38t27 88q0 76 -76 76q-64 0 -68 -20l-28 -150q0 -2 -2 -5z" />
<glyph unicode="&#xaf;" horiz-adv-x="522" d="M30 1128q0 24 18 52h442q10 0 10 -18q0 -34 -22 -56h-438q-10 0 -10 22z" />
<glyph unicode="&#xb0;" horiz-adv-x="532" d="M180 1034q0 94 71 164t153 70q66 0 108 -45t42 -113q0 -92 -70 -164t-154 -72q-66 0 -108 46t-42 114zM252 1048q0 -42 25 -71t67 -29q52 0 95 45t43 103q0 42 -25 70t-67 28q-54 0 -96 -43t-42 -103z" />
<glyph unicode="&#xb1;" horiz-adv-x="978" d="M-2 58q0 36 26 70h782q6 0 6 -16q0 -44 -24 -70h-780q-10 0 -10 16zM110 628q0 36 26 70h342l68 350q4 16 34 24t48 8q12 0 16 -5t2 -11l-72 -366h342q8 0 8 -16q0 -44 -24 -70h-342l-68 -356q-6 -32 -72 -32q-26 0 -26 16l70 372h-344q-8 0 -8 16z" />
<glyph unicode="&#xb2;" horiz-adv-x="690" d="M92 542q214 194 314 308q112 126 112 240q0 50 -35 82t-81 32q-32 0 -59 -10t-49 -32t-29 -30t-21 -28q-6 0 -13 15t-5 19q18 40 91 98t163 58q76 0 135 -43t59 -123q0 -74 -41 -136t-123 -146q-28 -30 -68 -64t-75 -62t-67 -52t-50 -37t-16 -13h236q74 0 120 102 q4 8 18 8q4 0 15 -7t13 -9q-38 -72 -96 -202h-440q-8 8 -8 32z" />
<glyph unicode="&#xb3;" horiz-adv-x="632" d="M90 560q0 28 21 56t43 28q18 0 29 -7t24 -27t15 -22q28 -32 88 -32q58 0 105 59t47 157q0 62 -34 97t-92 35q-36 0 -64 -8q-8 12 -8 14q0 24 2 28q82 14 149 65t67 117q0 38 -22 67t-60 29q-26 0 -50 -12t-39 -26t-28 -28t-15 -16q-6 0 -12 12t-4 22q90 128 206 128 q50 0 92 -35t42 -99q0 -56 -47 -107t-105 -85q64 -4 114 -56t50 -110q0 -98 -68 -173t-146 -106t-140 -31q-106 0 -148 30q-12 18 -12 36z" />
<glyph unicode="&#xb4;" horiz-adv-x="414" d="M44 1086q0 14 85 119t115 135q34 34 96 34q66 0 66 -42q0 -48 -159 -163t-183 -115q-6 0 -13 12t-7 20z" />
<glyph unicode="&#xb5;" horiz-adv-x="986" d="M-22 -292q0 160 174 700q6 28 19 106t13 82q20 90 48 238q30 40 54 40q18 0 54 -28t32 -46q-12 -70 -108 -308l-18 -46q-28 -118 -23 -218t51 -100q150 0 324 316l108 406q4 24 30 24q18 0 54 -28t32 -46q-10 -62 -110 -308l-18 -46q-68 -312 42 -312q58 0 118 60 q4 0 10 -9t6 -17q0 -10 -2 -16q-32 -66 -91 -113t-115 -47q-60 2 -72 71t-2 193q-168 -274 -334 -274q-12 0 -23 3t-19 11l-14 14q-6 6 -11 20t-8 22t-6 26t-4 25t-3 26t-2 23q-2 -8 -22 -67t-38 -137t-18 -146q0 -86 66 -190q-2 -20 -31 -37t-57 -17q-18 0 -35 9t-34 45 t-17 96z" />
<glyph unicode="&#xb6;" horiz-adv-x="966" d="M128 880q0 102 49 189t123 139t152 81t146 29q60 0 145 -2t117 -2t60 2t64 4t64 4q6 -8 1 -29t-13 -29q-24 0 -64 -9t-46 -23q-20 -38 -38 -148q-100 -578 -126 -714q-46 -240 -168 -396t-246 -156q-80 0 -108 50q0 16 2 32q12 80 58 80q34 0 76 -46q30 -30 58 -30 q56 0 93 101t87 357l136 710q26 122 20 150q-4 20 -38 20q-42 0 -83 -59t-66 -145t-25 -162q0 -168 70 -226q20 -10 20 -20q0 -36 -66 -61t-122 -25q-88 0 -155 32t-104 83t-55 107t-18 112z" />
<glyph unicode="&#xb7;" horiz-adv-x="444" d="M108 504q0 54 42 97t92 43q38 0 62 -26t24 -66q0 -56 -41 -99t-91 -43q-38 0 -63 27t-25 67z" />
<glyph unicode="&#xb8;" horiz-adv-x="322" d="M16 -268q0 20 11 29t19 9q10 0 29 -13t35 -13q40 0 68 23t28 59q0 26 -14 39t-34 13q-14 0 -50 -14q-4 0 -9 8t-5 14q0 4 9 15t30 37t41 54h38l-40 -46h44q30 0 48 -22t18 -54q0 -62 -57 -118t-151 -56q-36 0 -58 18v18z" />
<glyph unicode="&#xb9;" horiz-adv-x="540" d="M109 530q3 20 7 20q18 0 59 8t45 18q12 26 20 70l74 378q6 36 9 51t5 34t-1 25t-9 6q-32 0 -106 -28q-10 10 -10 28q0 10 6 12l120 60q72 36 118 60t48 24h2q10 0 10 -24q-20 -40 -34 -114l-94 -474q-14 -68 -12 -108q0 -10 41 -18t53 -8q4 0 4 -10v-16l-6 -18 q-114 6 -198 6q-34 0 -150 -6q-4 4 -1 24z" />
<glyph unicode="&#xba;" horiz-adv-x="678" d="M126 694q0 150 109 282t239 132q90 0 135 -56t45 -150q0 -148 -110 -278t-240 -130q-178 0 -178 200zM246 722q0 -84 24 -134t64 -50q88 0 144 112t56 232q0 182 -80 182q-90 0 -149 -112t-59 -230z" />
<glyph unicode="&#xbb;" horiz-adv-x="970" d="M26 176q10 24 336 318q-208 300 -208 316q12 20 42 36q46 -60 141 -151t183 -159q20 -14 20 -28q0 -30 -30 -48q-78 -44 -149 -91t-100 -68t-106 -82t-93 -73q-32 8 -36 30zM386 176q10 24 336 318q-208 300 -208 316q12 20 42 36q46 -60 141 -151t183 -159 q20 -14 20 -28q0 -30 -30 -48q-78 -44 -149 -91t-100 -68t-106 -82t-93 -73q-32 8 -36 30z" />
<glyph unicode="&#xbc;" horiz-adv-x="1274" d="M77 530q3 20 7 20q18 0 59 8t45 18q12 26 20 70l74 378q6 36 9 51t5 34t-1 25t-9 6q-32 0 -106 -28q-10 10 -10 28q0 10 6 12l120 60q72 36 118 60t48 24h2q10 0 10 -24q-20 -40 -34 -114l-94 -474q-14 -68 -12 -108q0 -10 41 -18t53 -8q4 0 4 -10v-16l-6 -18 q-114 6 -198 6q-34 0 -150 -6q-4 4 -1 24zM218 8q0 4 4 12l894 1264q46 0 46 -22q0 -8 -2 -10l-892 -1264q-50 -2 -50 20zM590 240l526 556q14 14 44 14q8 0 16 -11t6 -19l-94 -476h70q14 0 4 -62q-4 -14 -10 -30h-80l-40 -210q-28 -6 -72 -6q-26 0 -44 2t-16 8l40 206h-342 q-14 6 -8 28zM720 304h238l68 324z" />
<glyph unicode="&#xbd;" horiz-adv-x="1378" d="M79 530q3 20 7 20q18 0 59 8t45 18q12 26 20 70l74 378q6 36 9 51t5 34t-1 25t-9 6q-32 0 -106 -28q-10 10 -10 28q0 10 6 12l120 60q72 36 118 60t48 24h2q10 0 10 -24q-20 -40 -34 -114l-94 -474q-14 -68 -12 -108q0 -10 41 -18t53 -8q4 0 4 -10v-16l-6 -18 q-114 6 -198 6q-34 0 -150 -6q-4 4 -1 24zM220 8q0 4 4 12l894 1264q46 0 46 -22q0 -8 -2 -10l-892 -1264q-50 -2 -50 20zM718 36q214 194 314 308q112 126 112 240q0 50 -35 82t-81 32q-32 0 -59 -10t-50 -32t-29 -30t-22 -28q-6 0 -12 15t-4 19q16 40 90 98t164 58 q74 0 134 -43t60 -123q0 -74 -41 -136t-123 -146q-30 -30 -69 -64t-74 -62t-67 -52t-50 -37l-18 -13h238q74 0 120 102q4 8 18 8q2 0 14 -7t14 -9q-38 -72 -96 -202h-440q-8 8 -8 32z" />
<glyph unicode="&#xbe;" horiz-adv-x="1302" d="M64 560q0 28 21 56t43 28q18 0 29 -7t24 -27t15 -22q28 -32 88 -32q58 0 105 59t47 157q0 62 -34 97t-92 35q-36 0 -64 -8q-8 12 -8 14q0 24 2 28q82 14 149 65t67 117q0 38 -22 67t-60 29q-26 0 -50 -12t-39 -26t-28 -28t-15 -16q-6 0 -12 12t-4 22q90 128 206 128 q50 0 92 -35t42 -99q0 -56 -47 -107t-105 -85q64 -4 114 -56t50 -110q0 -98 -68 -173t-146 -106t-140 -31q-106 0 -148 30q-12 18 -12 36zM218 8q0 4 4 12l894 1264q46 0 46 -22q0 -8 -2 -10l-892 -1264q-50 -2 -50 20zM620 240l526 556q14 14 44 14q8 0 16 -11t6 -19 l-94 -476h70q6 0 7 -21t-3 -41q-2 -14 -10 -30h-80l-40 -210q-28 -6 -72 -6h-15q-7 0 -14 1t-13 1t-10 1t-6 3t-2 4l40 206h-342q-14 6 -8 28zM750 304h238l68 324z" />
<glyph unicode="&#xbf;" horiz-adv-x="620" d="M-66 -160q0 126 88 208q26 24 108 75t122 79q66 44 66 120q0 38 -26 74t-52 54q0 20 20 32q46 0 122 -64t76 -140q0 -98 -98 -166l-232 -160q-92 -64 -92 -152q0 -56 29 -88t75 -32t87 46t77 46q68 0 68 -104q-8 -26 -63 -56t-109 -30q-108 0 -187 81t-79 177zM290 732 q0 54 43 97t93 43q38 0 61 -26t23 -66q0 -56 -40 -98t-90 -42q-38 0 -64 26t-26 66z" />
<glyph unicode="&#xc0;" horiz-adv-x="1172" d="M-110 -6q-4 4 1 26t11 32q22 0 60 10t54 28q48 54 124 188l552 990q12 22 39 40t41 18q2 0 4 -3t6 -3l172 -1068q18 -122 22 -132q6 -30 48 -49t64 -19q2 -12 -1 -32t-5 -26q-186 10 -204 10q-2 0 -216 -10q-6 8 -2 29t14 29q20 0 58 8t52 18q8 8 12 28q12 60 -48 388 q-2 8 -8 8q-24 2 -188 2q-112 0 -196 -6l-12 -6q-86 -146 -132 -242q-40 -74 -54 -142q-6 -22 22 -36t52 -17t40 -3q2 -4 -1 -26t-7 -32q-28 2 -59 4t-57 4t-62 2q-38 0 -67 -2t-63 -4t-66 -4zM404 600q0 -8 4 -8q96 -4 158 -4q72 0 160 6l8 10l-70 466zM472 1592 q0 18 27 31t69 13q38 0 54 -10q38 -24 125 -100t87 -86q0 -4 -6 -12l-6 -8q-34 0 -192 70t-158 102z" />
<glyph unicode="&#xc1;" horiz-adv-x="1172" d="M-110 -6q-4 4 1 26t11 32q22 0 60 10t54 28q48 54 124 188l552 990q12 22 39 40t41 18q2 0 4 -3t6 -3l172 -1068q18 -122 22 -132q6 -30 48 -49t64 -19q2 -12 -1 -32t-5 -26q-186 10 -204 10q-2 0 -216 -10q-6 8 -2 29t14 29q20 0 58 8t52 18q8 8 12 28q12 60 -48 388 q-2 8 -8 8q-24 2 -188 2q-112 0 -196 -6l-12 -6q-86 -146 -132 -242q-40 -74 -54 -142q-6 -22 22 -36t52 -17t40 -3q2 -4 -1 -26t-7 -32q-28 2 -59 4t-57 4t-62 2q-38 0 -67 -2t-63 -4t-66 -4zM404 600q0 -8 4 -8q96 -4 158 -4q72 0 160 6l8 10l-70 466zM692 1442 q0 10 86 86t126 100q14 10 54 10t68 -13t28 -31q0 -32 -159 -102t-191 -70q-2 0 -7 8t-5 12z" />
<glyph unicode="&#xc2;" horiz-adv-x="1172" d="M-110 -6q-4 4 1 26t11 32q22 0 60 10t54 28q48 54 124 188l552 990q12 22 39 40t41 18q2 0 4 -3t6 -3l172 -1068q18 -122 22 -132q6 -30 48 -49t64 -19q2 -12 -1 -32t-5 -26q-186 10 -204 10q-2 0 -216 -10q-6 8 -2 29t14 29q20 0 58 8t52 18q8 8 12 28q12 60 -48 388 q-2 8 -8 8q-24 2 -188 2q-112 0 -196 -6l-12 -6q-86 -146 -132 -242q-40 -74 -54 -142q-6 -22 22 -36t52 -17t40 -3q2 -4 -1 -26t-7 -32q-28 2 -59 4t-57 4t-62 2q-38 0 -67 -2t-63 -4t-66 -4zM404 600q0 -8 4 -8q96 -4 158 -4q72 0 160 6l8 10l-70 466zM554 1442 q188 146 264 216q16 14 28 14t20 -14q14 -26 28 -48t31 -44t27 -36t34 -43t36 -45q-4 -20 -30 -20l-178 118l-240 -118q-10 0 -16 6t-4 14z" />
<glyph unicode="&#xc3;" horiz-adv-x="1172" d="M-110 -6q-4 4 1 26t11 32q22 0 60 10t54 28q48 54 124 188l552 990q12 22 39 40t41 18q2 0 4 -3t6 -3l172 -1068q18 -122 22 -132q6 -30 48 -49t64 -19q2 -12 -1 -32t-5 -26q-186 10 -204 10q-2 0 -216 -10q-6 8 -2 29t14 29q20 0 58 8t52 18q8 8 12 28q12 60 -48 388 q-2 8 -8 8q-24 2 -188 2q-112 0 -196 -6l-12 -6q-86 -146 -132 -242q-40 -74 -54 -142q-6 -22 22 -36t52 -17t40 -3q2 -4 -1 -26t-7 -32q-28 2 -59 4t-57 4t-62 2q-38 0 -67 -2t-63 -4t-66 -4zM404 600q0 -8 4 -8q96 -4 158 -4q72 0 160 6l8 10l-70 466zM498 1498 q0 36 38 74q68 66 156 66q72 0 122 -28q84 -48 144 -48q64 0 130 76q12 -4 12 -20q0 -38 -36 -74q-70 -66 -156 -66q-74 0 -122 28q-84 48 -144 48q-66 0 -130 -76q-14 4 -14 20z" />
<glyph unicode="&#xc4;" horiz-adv-x="1172" d="M-110 -6q-4 4 1 26t11 32q22 0 60 10t54 28q48 54 124 188l552 990q12 22 39 40t41 18q2 0 4 -3t6 -3l172 -1068q18 -122 22 -132q6 -30 48 -49t64 -19q2 -12 -1 -32t-5 -26q-186 10 -204 10q-2 0 -216 -10q-6 8 -2 29t14 29q20 0 58 8t52 18q8 8 12 28q12 60 -48 388 q-2 8 -8 8q-24 2 -188 2q-112 0 -196 -6l-12 -6q-86 -146 -132 -242q-40 -74 -54 -142q-6 -22 22 -36t52 -17t40 -3q2 -4 -1 -26t-7 -32q-28 2 -59 4t-57 4t-62 2q-38 0 -67 -2t-63 -4t-66 -4zM404 600q0 -8 4 -8q96 -4 158 -4q72 0 160 6l8 10l-70 466zM530 1556 q8 42 41 71t72 29t60 -29t13 -71q-6 -42 -40 -71t-74 -29q-38 0 -58 29t-14 71zM867 1556q7 42 40 71t72 29t60 -29t14 -71t-40 -71t-72 -29t-60 29t-14 71z" />
<glyph unicode="&#xc5;" horiz-adv-x="1172" d="M-110 -6q-4 4 1 26t11 32q22 0 60 10t54 28q48 54 124 188l552 990q12 22 39 40t41 18q2 0 4 -3t6 -3l172 -1068q18 -122 22 -132q6 -30 48 -49t64 -19q2 -12 -1 -32t-5 -26q-186 10 -204 10q-2 0 -216 -10q-6 8 -2 29t14 29q20 0 58 8t52 18q8 8 12 28q12 60 -48 388 q-2 8 -8 8q-24 2 -188 2q-112 0 -196 -6l-12 -6q-86 -146 -132 -242q-40 -74 -54 -142q-6 -22 22 -36t52 -17t40 -3q2 -4 -1 -26t-7 -32q-28 2 -59 4t-57 4t-62 2q-38 0 -67 -2t-63 -4t-66 -4zM404 600q0 -8 4 -8q96 -4 158 -4q72 0 160 6l8 10l-70 466zM629 1498 q15 74 75 126t127 52t104 -52t21 -126q-14 -74 -71 -127t-125 -53q-66 0 -106 53t-25 127zM691 1498q-9 -46 15 -79t66 -33t78 33t45 79t-14 78t-65 32t-79 -32t-46 -78z" />
<glyph unicode="&#xc6;" horiz-adv-x="1574" d="M-120 22q2 26 8 26q20 0 60 12t60 30q78 70 158 188l624 894q10 14 10 30q0 20 -15 34t-45 14q-4 0 -4 27t4 35h188q82 0 288 8t312 8q-4 -40 -10 -130t-8 -138q-10 -10 -34 -10t-24 14q-4 56 -20 92t-42 51t-49 20t-53 5h-118q-156 0 -164 -26q-16 -50 -30 -196 l-30 -318q-2 -8 13 -10t49 -2h66h68q22 0 47 6t34 10t24 23t21 34t24 51q4 12 8 18q4 14 30 14q22 0 30 -10q-32 -124 -52 -384q-12 -8 -30 -8q-24 0 -26 14q-4 52 -10 81t-10 33l-14 14q-22 16 -200 16q-80 0 -82 -20l-24 -264l-9 -86q-9 -86 -9 -96q0 -12 6 -20t34 -13 t82 -5h30q156 0 224 34q58 30 140 202q6 12 30 12q34 0 42 -12q-102 -196 -148 -332q-106 0 -286 6t-260 6q-56 0 -118 -2t-96 -6l-34 -2q-4 8 0 37t12 31q22 0 80 13t66 25t15 34t13 55t11 63t9 76t7 78t7 85t8 79q0 16 -12 16l-136 2q-82 0 -134 -2q-6 0 -12 -6l-218 -318 q-90 -128 -90 -162q0 -20 39 -36t63 -16v-12q0 -10 -2 -24t-4 -18q-186 10 -188 10q-50 0 -109 -4t-83 -6q-4 2 -2 28zM542 683q0 -3 4 -3q38 -2 106 -2q78 0 118 4l12 10l42 402l-280 -406q-2 -2 -2 -5z" />
<glyph unicode="&#xc7;" horiz-adv-x="1290" d="M118 530q0 242 117 430t301 282t394 90q120 -2 322 -52q-2 -42 -11 -165t-9 -127q-2 -16 -22 -16q-30 0 -40 16q8 118 -81 196t-217 78q-242 0 -403 -190t-161 -508q0 -94 23 -180t68 -162t127 -121t190 -45q152 0 274 102q88 74 148 188l56 -16q-6 -32 -64 -144 t-80 -130q-138 -72 -390 -72q-238 0 -390 159t-152 387zM454 -294q4 12 15 22t21 10q12 0 35 -15t41 -15q46 0 75 23t35 55q8 38 -9 59t-43 21q-22 0 -62 -16q-4 0 -12 12t-4 18q4 4 42 52t52 68h46l-50 -54h56q44 0 64 -34t10 -82q-16 -80 -85 -129t-157 -49q-46 0 -70 20 v34z" />
<glyph unicode="&#xc8;" horiz-adv-x="1108" d="M-12 23q4 21 12 29q28 0 78 9t58 23q14 28 38 148l166 854q22 112 18 148q-2 14 -48 23t-74 9q-6 8 -2 29t14 29q190 -10 218 -10q82 0 288 7t312 7q-6 -24 -2 -139t4 -133q-10 -10 -36 -10q-22 0 -22 14q-8 110 -53 146t-129 36h-160q-122 0 -132 -22q-16 -30 -36 -142 l-72 -368q-2 -6 20 -9t58 -3h98q46 0 72 1t50 7t34 11t24 24t21 33t23 50q4 12 8 18q4 14 32 14q20 0 28 -10l-72 -378q-8 -8 -32 -8t-26 16q-4 56 -8 83t-7 34t-11 15q-22 16 -194 16q-134 0 -138 -18l-74 -374q-26 -126 -14 -138q14 -14 38 -17t90 -3h88q56 0 128 13 t116 35q32 16 76 71t80 131q6 12 30 12q36 0 44 -12q-14 -24 -58 -105t-70 -134t-38 -93q-96 0 -299 4t-333 4q-46 0 -117 -3t-105 -3q-6 8 -2 29zM486 1592q0 18 27 31t69 13q38 0 54 -10q38 -24 125 -100t87 -86q0 -4 -6 -12l-6 -8q-34 0 -192 70t-158 102z" />
<glyph unicode="&#xc9;" horiz-adv-x="1108" d="M-12 23q4 21 12 29q28 0 78 9t58 23q14 28 38 148l166 854q22 112 18 148q-2 14 -48 23t-74 9q-6 8 -2 29t14 29q190 -10 218 -10q82 0 288 7t312 7q-6 -24 -2 -139t4 -133q-10 -10 -36 -10q-22 0 -22 14q-8 110 -53 146t-129 36h-160q-122 0 -132 -22q-16 -30 -36 -142 l-72 -368q-2 -6 20 -9t58 -3h98q46 0 72 1t50 7t34 11t24 24t21 33t23 50q4 12 8 18q4 14 32 14q20 0 28 -10l-72 -378q-8 -8 -32 -8t-26 16q-4 56 -8 83t-7 34t-11 15q-22 16 -194 16q-134 0 -138 -18l-74 -374q-26 -126 -14 -138q14 -14 38 -17t90 -3h88q56 0 128 13 t116 35q32 16 76 71t80 131q6 12 30 12q36 0 44 -12q-14 -24 -58 -105t-70 -134t-38 -93q-96 0 -299 4t-333 4q-46 0 -117 -3t-105 -3q-6 8 -2 29zM578 1442q0 10 86 86t126 100q14 10 54 10q42 0 69 -13t27 -31q0 -32 -159 -102t-191 -70q-2 0 -7 8t-5 12z" />
<glyph unicode="&#xca;" horiz-adv-x="1108" d="M-12 23q4 21 12 29q28 0 78 9t58 23q14 28 38 148l166 854q22 112 18 148q-2 14 -48 23t-74 9q-6 8 -2 29t14 29q190 -10 218 -10q82 0 288 7t312 7q-6 -24 -2 -139t4 -133q-10 -10 -36 -10q-22 0 -22 14q-8 110 -53 146t-129 36h-160q-122 0 -132 -22q-16 -30 -36 -142 l-72 -368q-2 -6 20 -9t58 -3h98q46 0 72 1t50 7t34 11t24 24t21 33t23 50q4 12 8 18q4 14 32 14q20 0 28 -10l-72 -378q-8 -8 -32 -8t-26 16q-4 56 -8 83t-7 34t-11 15q-22 16 -194 16q-134 0 -138 -18l-74 -374q-26 -126 -14 -138q14 -14 38 -17t90 -3h88q56 0 128 13 t116 35q32 16 76 71t80 131q6 12 30 12q36 0 44 -12q-14 -24 -58 -105t-70 -134t-38 -93q-96 0 -299 4t-333 4q-46 0 -117 -3t-105 -3q-6 8 -2 29zM494 1442q188 146 264 216q16 14 28 14t20 -14q14 -26 28 -48t31 -44t27 -36t34 -43t36 -45q-4 -20 -30 -20l-178 118 l-240 -118q-10 0 -16 6t-4 14z" />
<glyph unicode="&#xcb;" horiz-adv-x="1108" d="M-12 23q4 21 12 29q28 0 78 9t58 23q14 28 38 148l166 854q22 112 18 148q-2 14 -48 23t-74 9q-6 8 -2 29t14 29q190 -10 218 -10q82 0 288 7t312 7q-6 -24 -2 -139t4 -133q-10 -10 -36 -10q-22 0 -22 14q-8 110 -53 146t-129 36h-160q-122 0 -132 -22q-16 -30 -36 -142 l-72 -368q-2 -6 20 -9t58 -3h98q46 0 72 1t50 7t34 11t24 24t21 33t23 50q4 12 8 18q4 14 32 14q20 0 28 -10l-72 -378q-8 -8 -32 -8t-26 16q-4 56 -8 83t-7 34t-11 15q-22 16 -194 16q-134 0 -138 -18l-74 -374q-26 -126 -14 -138q14 -14 38 -17t90 -3h88q56 0 128 13 t116 35q32 16 76 71t80 131q6 12 30 12q36 0 44 -12q-14 -24 -58 -105t-70 -134t-38 -93q-96 0 -299 4t-333 4q-46 0 -117 -3t-105 -3q-6 8 -2 29zM468 1556q6 42 39 71t72 29t60 -29t15 -71q-8 -42 -42 -71t-72 -29q-40 0 -60 29t-12 71zM803 1556q7 42 40 71t72 29t60 -29 t14 -71t-40 -71t-72 -29t-60 29t-14 71z" />
<glyph unicode="&#xcc;" horiz-adv-x="626" d="M-12 23q4 21 12 29q28 0 78 9t58 23q14 28 38 148l166 854q22 112 18 148q-2 14 -48 23t-74 9q-6 8 -2 29t14 29q190 -10 218 -10q24 0 220 10q4 -8 0 -29t-12 -29q-28 0 -78 -9t-56 -23q-14 -28 -38 -148l-166 -854q-24 -118 -20 -148q0 -14 47 -23t75 -9q4 -8 0 -29 t-12 -29q-190 10 -214 10q-28 0 -222 -10q-6 8 -2 29zM242 1592q0 18 27 31t69 13q38 0 54 -10q38 -24 125 -100t87 -86q0 -4 -6 -12l-6 -8q-34 0 -192 70t-158 102z" />
<glyph unicode="&#xcd;" horiz-adv-x="626" d="M-12 23q4 21 12 29q28 0 78 9t58 23q14 28 38 148l166 854q22 112 18 148q-2 14 -48 23t-74 9q-6 8 -2 29t14 29q190 -10 218 -10q24 0 220 10q4 -8 0 -29t-12 -29q-28 0 -78 -9t-56 -23q-14 -28 -38 -148l-166 -854q-24 -118 -20 -148q0 -14 47 -23t75 -9q4 -8 0 -29 t-12 -29q-190 10 -214 10q-28 0 -222 -10q-6 8 -2 29zM350 1442q0 10 86 86t126 100q14 10 54 10q42 0 69 -13t27 -31q0 -32 -159 -102t-191 -70q-2 0 -7 8t-5 12z" />
<glyph unicode="&#xce;" horiz-adv-x="626" d="M-12 23q4 21 12 29q28 0 78 9t58 23q14 28 38 148l166 854q22 112 18 148q-2 14 -48 23t-74 9q-6 8 -2 29t14 29q190 -10 218 -10q24 0 220 10q4 -8 0 -29t-12 -29q-28 0 -78 -9t-56 -23q-14 -28 -38 -148l-166 -854q-24 -118 -20 -148q0 -14 47 -23t75 -9q4 -8 0 -29 t-12 -29q-190 10 -214 10q-28 0 -222 -10q-6 8 -2 29zM292 1442q188 146 264 216q16 14 28 14t20 -14q14 -26 28 -48t31 -44t27 -36t34 -43t36 -45q-4 -20 -30 -20l-178 118l-240 -118q-10 0 -16 6t-4 14z" />
<glyph unicode="&#xcf;" horiz-adv-x="626" d="M-12 23q4 21 12 29q28 0 78 9t58 23q14 28 38 148l166 854q22 112 18 148q-2 14 -48 23t-74 9q-6 8 -2 29t14 29q190 -10 218 -10q24 0 220 10q4 -8 0 -29t-12 -29q-28 0 -78 -9t-56 -23q-14 -28 -38 -148l-166 -854q-24 -118 -20 -148q0 -14 47 -23t75 -9q4 -8 0 -29 t-12 -29q-190 10 -214 10q-28 0 -222 -10q-6 8 -2 29zM262 1562q0 46 29 79t73 33q30 0 52 -24t22 -56q0 -48 -32 -84t-76 -36q-32 0 -50 26t-18 62zM600 1562q0 46 29 79t73 33q30 0 52 -24t22 -56q0 -48 -32 -84t-76 -36q-32 0 -50 26t-18 62z" />
<glyph unicode="&#xd0;" horiz-adv-x="1368" d="M-10 -6q-4 8 0 29t12 29q28 0 78 9t56 23q14 28 38 148l166 854q24 118 20 148q0 14 -47 23t-75 9q-4 8 -1 29t11 29q190 -10 218 -10q36 0 132 1t138 1q316 0 463 -182t91 -466q-20 -108 -59 -201t-107 -182t-158 -152t-221 -101t-289 -38h-466zM140 648q8 40 18 50h660 q14 0 10 -16q-6 -38 -20 -56h-662q-10 0 -6 22zM322 92q14 -28 146 -28q148 0 274 57t223 187t133 318q30 170 15 288t-78 192t-152 108t-209 34q-122 0 -134 -22q-12 -26 -38 -148l-164 -842q-6 -28 -13 -82t-3 -62z" />
<glyph unicode="&#xd1;" horiz-adv-x="1464" d="M-24 -6q-10 24 12 58q26 0 83 12t69 28q28 38 46 136l168 868q18 104 8 136q-6 16 -58 28t-78 12q-10 34 10 58q26 -2 91 -6t101 -4q90 0 142 4q30 -78 245 -455t291 -537l8 46l140 712q20 104 8 138q-6 14 -56 27t-78 13q-10 22 8 58q184 -10 212 -10q38 0 68 2t67 4 t69 4q10 -26 -10 -58q-26 0 -84 -12t-70 -28q-26 -34 -44 -136l-158 -814q-36 -194 -50 -280q-8 -8 -34 -8q-12 0 -28 13t-26 33l-596 1102l-176 -908q-20 -104 -8 -138q6 -14 56 -27t78 -13q10 -22 -8 -58q-186 10 -212 10q-38 0 -69 -2t-68 -4t-69 -4zM582 1498 q0 36 38 74q68 66 156 66q72 0 122 -28q84 -48 144 -48q64 0 130 76q12 -4 12 -20q0 -38 -36 -74q-68 -66 -156 -66q-74 0 -122 28q-84 48 -144 48q-66 0 -130 -76q-14 4 -14 20z" />
<glyph unicode="&#xd2;" horiz-adv-x="1420" d="M122 554q0 334 212 555t496 221q232 0 373 -164t141 -410q0 -344 -205 -561t-501 -217q-236 0 -376 165t-140 411zM310 536q0 -94 16 -174t53 -154t108 -116t169 -42q146 0 263 110t177 277t60 349q0 64 -8 124t-32 125t-61 113t-100 79t-143 31q-196 0 -349 -208 t-153 -514zM566 1592q0 18 27 31t69 13q38 0 54 -10q38 -24 125 -100t87 -86q0 -4 -5 -12t-7 -8q-32 0 -191 70t-159 102z" />
<glyph unicode="&#xd3;" horiz-adv-x="1420" d="M122 554q0 334 212 555t496 221q232 0 373 -164t141 -410q0 -344 -205 -561t-501 -217q-236 0 -376 165t-140 411zM310 536q0 -94 16 -174t53 -154t108 -116t169 -42q146 0 263 110t177 277t60 349q0 64 -8 124t-32 125t-61 113t-100 79t-143 31q-196 0 -349 -208 t-153 -514zM706 1442q0 10 87 86t125 100q14 10 54 10q42 0 69 -13t27 -31q0 -32 -159 -102t-191 -70q-2 0 -7 8t-5 12z" />
<glyph unicode="&#xd4;" horiz-adv-x="1420" d="M122 554q0 334 212 555t496 221q232 0 373 -164t141 -410q0 -344 -205 -561t-501 -217q-236 0 -376 165t-140 411zM310 536q0 -94 16 -174t53 -154t108 -116t169 -42q146 0 263 110t177 277t60 349q0 64 -8 124t-32 125t-61 113t-100 79t-143 31q-196 0 -349 -208 t-153 -514zM566 1442q188 146 264 216q18 14 28 14q14 0 20 -14q38 -66 156 -216q-4 -20 -30 -20l-178 118l-240 -118q-24 0 -20 20z" />
<glyph unicode="&#xd5;" horiz-adv-x="1420" d="M122 554q0 334 212 555t496 221q232 0 373 -164t141 -410q0 -344 -205 -561t-501 -217q-236 0 -376 165t-140 411zM310 536q0 -94 16 -174t53 -154t108 -116t169 -42q146 0 263 110t177 277t60 349q0 64 -8 124t-32 125t-61 113t-100 79t-143 31q-196 0 -349 -208 t-153 -514zM550 1498q0 36 38 74q68 66 156 66q72 0 122 -28q84 -48 144 -48q64 0 130 76q12 -4 12 -20q0 -38 -36 -74q-68 -66 -156 -66q-72 0 -122 28q-84 48 -144 48q-64 0 -130 -76q-14 4 -14 20z" />
<glyph unicode="&#xd6;" horiz-adv-x="1420" d="M122 554q0 334 212 555t496 221q232 0 373 -164t141 -410q0 -344 -205 -561t-501 -217q-236 0 -376 165t-140 411zM310 536q0 -94 16 -174t53 -154t108 -116t169 -42q146 0 263 110t177 277t60 349q0 64 -8 124t-32 125t-61 113t-100 79t-143 31q-196 0 -349 -208 t-153 -514zM588 1556q8 42 40 71t71 29t61 -29t14 -71t-41 -71t-73 -29q-38 0 -59 29t-13 71zM924 1556q8 42 40 71t71 29t61 -29t14 -71t-40 -71t-71 -29t-61 29t-14 71z" />
<glyph unicode="&#xd7;" horiz-adv-x="822" d="M28 216l308 270q4 4 4 6q0 8 -10 18l-194 266q0 18 22 42t32 24l8 -8l208 -282q4 -4 8 -4l4 2l316 282q6 6 12 6q10 0 18 -27t8 -55l-306 -272l-4 -4q0 -2 2 -4l200 -272q0 -20 -16 -44t-28 -24t-14 6l-206 280q-4 4 -6 4q-4 0 -8 -4l-322 -280q-6 -6 -10 -6q-8 0 -17 28 t-9 52z" />
<glyph unicode="&#xd8;" horiz-adv-x="1398" d="M120 656q54 280 267 479t459 199q162 0 281 -91t169 -247t14 -340q-54 -280 -268 -478t-460 -198q-160 0 -279 90t-169 246t-14 340zM172 20l1032 1314q14 -4 34 -20t12 -24l-1034 -1316q-14 6 -32 22t-12 24zM298 470q10 -114 43 -204t108 -145t179 -55q120 0 226 83 t172 206t92 263q26 116 16 229t-44 203t-109 145t-179 55q-118 0 -224 -83t-171 -206t-93 -261q-26 -116 -16 -230z" />
<glyph unicode="&#xd9;" horiz-adv-x="1364" d="M194 502l114 584q24 118 20 148q-2 14 -48 23t-74 9q-6 8 -2 29t14 29q190 -10 216 -10q24 0 220 10q4 -8 0 -29t-12 -29q-28 0 -78 -9t-56 -23q-14 -28 -38 -148l-96 -494q-46 -230 10 -352q62 -132 242 -132q354 0 446 440l106 542q20 104 8 138q-6 14 -53 27t-73 13 q-10 22 8 58q184 -10 204 -10q38 0 68 2t67 4t69 4q10 -26 -10 -58q-26 0 -84 -12t-70 -28q-26 -34 -44 -136l-106 -540q-56 -288 -213 -424t-385 -136q-214 0 -316 144q-100 140 -54 366zM606 1592q0 18 27 31t69 13q38 0 54 -10q38 -24 125 -100t87 -86q0 -4 -5 -12t-7 -8 q-34 0 -192 70t-158 102z" />
<glyph unicode="&#xda;" horiz-adv-x="1364" d="M194 502l114 584q24 118 20 148q-2 14 -48 23t-74 9q-6 8 -2 29t14 29q190 -10 216 -10q24 0 220 10q4 -8 0 -29t-12 -29q-28 0 -78 -9t-56 -23q-14 -28 -38 -148l-96 -494q-46 -230 10 -352q62 -132 242 -132q354 0 446 440l106 542q20 104 8 138q-6 14 -53 27t-73 13 q-10 22 8 58q184 -10 204 -10q38 0 68 2t67 4t69 4q10 -26 -10 -58q-26 0 -84 -12t-70 -28q-26 -34 -44 -136l-106 -540q-56 -288 -213 -424t-385 -136q-214 0 -316 144q-100 140 -54 366zM808 1442q0 10 86 86t126 100q14 10 54 10q42 0 69 -13t27 -31q0 -32 -159 -102 t-191 -70q-2 0 -7 8t-5 12z" />
<glyph unicode="&#xdb;" horiz-adv-x="1364" d="M194 502l114 584q24 118 20 148q-2 14 -48 23t-74 9q-6 8 -2 29t14 29q190 -10 216 -10q24 0 220 10q4 -8 0 -29t-12 -29q-28 0 -78 -9t-56 -23q-14 -28 -38 -148l-96 -494q-46 -230 10 -352q62 -132 242 -132q354 0 446 440l106 542q20 104 8 138q-6 14 -53 27t-73 13 q-10 22 8 58q184 -10 204 -10q38 0 68 2t67 4t69 4q10 -26 -10 -58q-26 0 -84 -12t-70 -28q-26 -34 -44 -136l-106 -540q-56 -288 -213 -424t-385 -136q-214 0 -316 144q-100 140 -54 366zM640 1442q188 146 264 216q16 14 28 14t20 -14q14 -26 28 -48t31 -44t27 -36t34 -43 t36 -45q-4 -20 -30 -20l-178 118l-240 -118q-10 0 -16 6t-4 14z" />
<glyph unicode="&#xdc;" horiz-adv-x="1364" d="M194 502l114 584q24 118 20 148q-2 14 -48 23t-74 9q-6 8 -2 29t14 29q190 -10 216 -10q24 0 220 10q4 -8 0 -29t-12 -29q-28 0 -78 -9t-56 -23q-14 -28 -38 -148l-96 -494q-46 -230 10 -352q62 -132 242 -132q354 0 446 440l106 542q20 104 8 138q-6 14 -53 27t-73 13 q-10 22 8 58q184 -10 204 -10q38 0 68 2t67 4t69 4q10 -26 -10 -58q-26 0 -84 -12t-70 -28q-26 -34 -44 -136l-106 -540q-56 -288 -213 -424t-385 -136q-214 0 -316 144q-100 140 -54 366zM628 1556q6 42 39 71t72 29t60 -29t15 -71q-8 -42 -42 -71t-72 -29q-40 0 -60 29 t-12 71zM963 1556q7 42 40 71t72 29t60 -29t14 -71t-40 -71t-72 -29t-60 29t-14 71z" />
<glyph unicode="&#xdd;" horiz-adv-x="1112" d="M114 1279q0 11 5 26t11 19q226 -10 230 -10q50 0 240 10q2 -10 -3 -34t-11 -24q-34 0 -76 -15t-48 -49q-4 -16 10 -60l160 -478q92 130 207 302t141 218q10 14 12 30q2 8 -7 19t-40 21t-79 10q-4 4 0 28t8 30q170 -10 190 -10q16 0 206 10q0 -6 -6 -32t-10 -26 q-120 0 -178 -80l-410 -582q-8 -12 -20 -62l-62 -308q-24 -118 -20 -148q2 -14 48 -23t74 -9q6 -8 2 -29t-12 -29q-190 10 -216 10t-222 -10q-6 8 -1 29t13 29q28 0 78 9t56 23q14 28 38 148l58 302q4 34 -2 56l-166 506q-18 54 -39 84t-57 54q-44 32 -98 32q-4 2 -4 13z M666 1442q0 10 87 86t125 100q16 10 54 10q42 0 69 -13t27 -31q0 -32 -158 -102t-192 -70q-2 0 -7 8t-5 12z" />
<glyph unicode="&#xde;" horiz-adv-x="1014" d="M-10 23q4 21 12 29q28 0 78 9t58 23q16 32 38 148l166 854q20 120 18 148q-2 14 -48 23t-74 9q-6 8 -2 29t14 29q190 -10 218 -10q24 0 220 10q4 -8 0 -29t-12 -29q-30 0 -80 -9t-54 -23q-22 -58 -48 -194q-2 -10 -5 -23t-3 -17q-2 -14 4 -14q4 2 22 8t25 8t26 7t32 7 t35 4t46 2q58 0 117 -28t106 -78t69 -127t4 -165q-10 -58 -45 -119t-88 -115t-135 -89t-174 -35q-32 0 -69 16t-51 36q-6 8 -6 36q2 12 4 12q38 -24 110 -24q100 0 176 62t100 190q28 140 -21 240t-161 100q-70 0 -106 -18q-42 -20 -54 -80l-114 -604q-24 -124 -20 -148 q0 -14 47 -23t75 -9q4 -8 0 -29t-12 -29q-190 10 -214 10q-28 0 -222 -10q-6 8 -2 29z" />
<glyph unicode="&#xdf;" horiz-adv-x="1000" d="M-250 -416q26 -50 108 -50q124 0 246 156t168 396l136 740q46 250 88 354t104 104q66 0 117 -52t51 -138q0 -70 -27 -122t-79 -102q-22 -22 -57 -55t-47 -46t-28 -34t-21 -41t-5 -46q0 -42 20 -85t35 -63t57 -68q44 -50 67 -78t53 -83t30 -95q0 -54 -26 -89t-82 -35 q-32 0 -59 23t-42 50t-34 50t-39 23q-32 0 -54 -21t-26 -61q0 -12 12 -52q72 -72 200 -72q120 0 198 71t78 181q0 38 -7 71t-30 69t-34 51t-50 58t-47 51q-8 10 -28 31t-30 34t-23 30t-19 33t-6 32q0 18 8 34t31 41t31 33t42 40q8 6 40 32t49 44t40 51t34 74t11 91 q0 110 -73 168t-161 58q-124 0 -246 -153t-168 -391h-94q-32 0 -62 -25t-30 -43q0 -6 4 -6h170l-120 -674q-50 -256 -87 -357t-93 -101q-28 0 -58 30q-42 46 -76 46q-46 0 -58 -78q-2 -16 -2 -34z" />
<glyph unicode="&#xe0;" d="M38 226q0 126 55 247t139 206t186 138t192 53q86 0 156 -26l-122 -632q-8 -32 -8 -64q0 -50 20 -50q10 0 25 8t29 20t30 28t27 28t21 22l8 10q4 0 12 -15t8 -23q-24 -42 -112 -115t-150 -73q-32 0 -50 29t-18 75q0 32 14 106q8 48 10 62q-46 -84 -132 -177t-162 -93 q-80 0 -129 65t-49 171zM186 302q0 -196 102 -196q72 0 161 146t119 296l42 212q-26 30 -92 30q-116 0 -224 -158t-108 -330zM338 1206q0 30 26 45t52 15q46 0 74 -20q22 -14 106 -112t84 -110q0 -4 -6 -12t-10 -8q-26 0 -176 88t-150 114z" />
<glyph unicode="&#xe1;" d="M38 226q0 126 55 247t139 206t186 138t192 53q86 0 156 -26l-122 -632q-8 -32 -8 -64q0 -50 20 -50q10 0 25 8t29 20t30 28t27 28t21 22l8 10q4 0 12 -15t8 -23q-24 -42 -112 -115t-150 -73q-32 0 -50 29t-18 75q0 32 14 106q8 48 10 62q-46 -84 -132 -177t-162 -93 q-80 0 -129 65t-49 171zM186 302q0 -196 102 -196q72 0 161 146t119 296l42 212q-26 30 -92 30q-116 0 -224 -158t-108 -330zM484 1024q0 12 84 110t106 112q28 20 74 20q26 0 52 -15t26 -45q0 -26 -150 -114t-176 -88q-4 0 -10 8t-6 12z" />
<glyph unicode="&#xe2;" d="M38 226q0 126 55 247t139 206t186 138t192 53q86 0 156 -26l-122 -632q-8 -32 -8 -64q0 -50 20 -50q10 0 25 8t29 20t30 28t27 28t21 22l8 10q4 0 12 -15t8 -23q-24 -42 -112 -115t-150 -73q-32 0 -50 29t-18 75q0 32 14 106q8 48 10 62q-46 -84 -132 -177t-162 -93 q-80 0 -129 65t-49 171zM186 302q0 -196 102 -196q72 0 161 146t119 296l42 212q-26 30 -92 30q-116 0 -224 -158t-108 -330zM336 1010q144 136 232 232q16 16 24 16q10 0 18 -16q64 -120 136 -232q-2 -8 -10 -15t-16 -7l-156 128q-132 -78 -210 -128q-8 0 -14 7t-4 15z" />
<glyph unicode="&#xe3;" d="M38 226q0 126 55 247t139 206t186 138t192 53q86 0 156 -26l-122 -632q-8 -32 -8 -64q0 -50 20 -50q10 0 25 8t29 20t30 28t27 28t21 22l8 10q4 0 12 -15t8 -23q-24 -42 -112 -115t-150 -73q-32 0 -50 29t-18 75q0 32 14 106q8 48 10 62q-46 -84 -132 -177t-162 -93 q-80 0 -129 65t-49 171zM186 302q0 -196 102 -196q72 0 161 146t119 296l42 212q-26 30 -92 30q-116 0 -224 -158t-108 -330zM256 1032q6 42 40 72q70 64 158 64q60 0 112 -26q8 -4 35 -19t48 -21t47 -6q58 0 130 72q14 -4 12 -18q-6 -42 -42 -74q-68 -64 -156 -64 q-50 0 -110 28q-4 2 -27 14t-33 16t-32 9t-42 5q-58 0 -130 -72q-12 4 -10 20z" />
<glyph unicode="&#xe4;" d="M38 226q0 126 55 247t139 206t186 138t192 53q86 0 156 -26l-122 -632q-8 -32 -8 -64q0 -50 20 -50q10 0 25 8t29 20t30 28t27 28t21 22l8 10q4 0 12 -15t8 -23q-24 -42 -112 -115t-150 -73q-32 0 -50 29t-18 75q0 32 14 106q8 48 10 62q-46 -84 -132 -177t-162 -93 q-80 0 -129 65t-49 171zM186 302q0 -196 102 -196q72 0 161 146t119 296l42 212q-26 30 -92 30q-116 0 -224 -158t-108 -330zM300 1102q0 46 29 79t73 33q30 0 52 -24t22 -56q0 -48 -31 -84t-77 -36q-32 0 -50 26t-18 62zM638 1102q0 46 29 79t73 33q30 0 52 -24t22 -56 q0 -48 -31 -84t-77 -36q-32 0 -50 26t-18 62z" />
<glyph unicode="&#xe5;" d="M38 226q0 126 55 247t139 206t186 138t192 53q86 0 156 -26l-122 -632q-8 -32 -8 -64q0 -50 20 -50q10 0 25 8t29 20t30 28t27 28t21 22l8 10q4 0 12 -15t8 -23q-24 -42 -112 -115t-150 -73q-32 0 -50 29t-18 75q0 32 14 106q8 48 10 62q-46 -84 -132 -177t-162 -93 q-80 0 -129 65t-49 171zM186 302q0 -196 102 -196q72 0 161 146t119 296l42 212q-26 30 -92 30q-116 0 -224 -158t-108 -330zM439 1172q15 74 74 126t127 52t104 -52t22 -126q-16 -74 -73 -127t-123 -53q-68 0 -107 53t-24 127zM501 1172q-9 -46 15 -79t66 -33t78 33t45 79 t-14 78t-65 32t-79 -32t-46 -78z" />
<glyph unicode="&#xe6;" horiz-adv-x="1118" d="M12 160q0 62 37 116t81 84q14 8 78 29t150 47t106 32q4 2 7 6t4 8t3 15t4 17l22 120q4 16 4 42q0 42 -31 80t-81 38q-42 0 -67 -28t-47 -88q-34 -90 -102 -90q-46 0 -46 58q0 30 22 66q62 54 161 106t185 52q58 0 98 -41t46 -97q52 58 132 98t158 40q48 0 78 -15t41 -41 t14 -41t3 -33q0 -82 -89 -161t-194 -124t-187 -57q-8 -48 -8 -82q0 -98 35 -154t105 -56q16 0 33 6t33 15t33 21t31 24t28 25t23 22t16 17l7 8q4 0 13 -14t11 -26q-60 -84 -147 -150t-159 -66q-66 0 -127 42t-81 110q-28 -36 -129 -96t-139 -60q-70 0 -119 44t-49 132z M164 202q0 -48 25 -79t65 -31q42 0 110 53t70 71l30 186q-124 -24 -196 -62q-104 -54 -104 -138zM612 460q78 0 195 75t117 173q0 36 -25 58t-57 22q-88 0 -151 -103t-79 -225z" />
<glyph unicode="&#xe7;" horiz-adv-x="718" d="M48 280q0 228 168 409t334 181q64 0 124 -50q18 -24 18 -54q0 -38 -18 -64t-50 -26q-48 0 -72 40q-44 72 -104 72q-88 0 -166 -136t-78 -328q0 -218 138 -218q16 0 34 6t35 15t34 21t31 24t28 25t22 22t14 17l8 8q4 0 14 -16t10 -24q-30 -50 -125 -133t-177 -83 q-106 0 -164 76t-58 216zM98 -258q0 20 11 29t19 9q10 0 29 -13t35 -13q40 0 68 23t28 59q0 26 -14 39t-34 13q-16 0 -50 -14q-4 0 -9 8t-5 14q0 4 9 15t30 37t41 54h38l-40 -46h44q30 0 48 -22t18 -54q0 -62 -57 -118t-151 -56q-36 0 -58 18v18z" />
<glyph unicode="&#xe8;" horiz-adv-x="726" d="M46 278q0 218 163 405t339 187q70 0 101 -36t31 -88q0 -88 -94 -176t-204 -136t-176 -48q-4 -12 -4 -64q0 -216 138 -216q16 0 34 6t35 15t34 21t31 24t28 25t22 22t16 17l6 8q4 0 14 -16t10 -24q-32 -54 -127 -135t-177 -81q-106 0 -163 75t-57 215zM210 436 q76 0 199 86t123 186q0 38 -26 59t-58 21q-92 0 -160 -125t-78 -227zM272 1206q0 30 26 45t52 15q46 0 74 -20q22 -14 106 -112t84 -110q0 -4 -6 -12t-10 -8q-26 0 -176 88t-150 114z" />
<glyph unicode="&#xe9;" horiz-adv-x="726" d="M46 278q0 218 163 405t339 187q70 0 101 -36t31 -88q0 -88 -94 -176t-204 -136t-176 -48q-4 -12 -4 -64q0 -216 138 -216q16 0 34 6t35 15t34 21t31 24t28 25t22 22t16 17l6 8q4 0 14 -16t10 -24q-32 -54 -127 -135t-177 -81q-106 0 -163 75t-57 215zM210 436 q76 0 199 86t123 186q0 38 -26 59t-58 21q-92 0 -160 -125t-78 -227zM434 1024q0 12 84 110t106 112q28 20 74 20q26 0 52 -15t26 -45q0 -26 -150 -114t-176 -88q-4 0 -10 8t-6 12z" />
<glyph unicode="&#xea;" horiz-adv-x="726" d="M46 278q0 218 163 405t339 187q70 0 101 -36t31 -88q0 -88 -94 -176t-204 -136t-176 -48q-4 -12 -4 -64q0 -216 138 -216q16 0 34 6t35 15t34 21t31 24t28 25t22 22t16 17l6 8q4 0 14 -16t10 -24q-32 -54 -127 -135t-177 -81q-106 0 -163 75t-57 215zM210 436 q76 0 199 86t123 186q0 38 -26 59t-58 21q-92 0 -160 -125t-78 -227zM286 1010q144 136 232 232q16 16 24 16q10 0 18 -16q64 -120 136 -232q-2 -8 -10 -15t-16 -7l-156 128q-132 -78 -210 -128q-8 0 -14 7t-4 15z" />
<glyph unicode="&#xeb;" horiz-adv-x="726" d="M46 278q0 218 163 405t339 187q70 0 101 -36t31 -88q0 -88 -94 -176t-204 -136t-176 -48q-4 -12 -4 -64q0 -216 138 -216q16 0 34 6t35 15t34 21t31 24t28 25t22 22t16 17l6 8q4 0 14 -16t10 -24q-32 -54 -127 -135t-177 -81q-106 0 -163 75t-57 215zM210 436 q76 0 199 86t123 186q0 38 -26 59t-58 21q-92 0 -160 -125t-78 -227zM230 1102q0 46 29 79t73 33q30 0 52 -24t22 -56q0 -48 -31 -84t-77 -36q-32 0 -50 26t-18 62zM568 1102q0 46 29 79t73 33q30 0 52 -24t22 -56q0 -48 -31 -84t-77 -36q-32 0 -50 26t-18 62z" />
<glyph unicode="&#xec;" horiz-adv-x="524" d="M56 682q26 44 108 116t144 72q32 0 55 -30t23 -74q0 -32 -14 -106l-102 -448q-8 -40 -8 -64q0 -50 20 -50q10 0 25 8t29 20t30 28t27 28t19 22l10 10q4 0 12 -15t8 -23q-24 -42 -112 -115t-150 -73q-32 0 -50 29t-18 75q0 32 14 106l102 448q8 48 8 64q0 50 -20 50 q-10 0 -25 -8t-29 -20t-30 -28t-27 -28t-21 -22l-8 -10q-4 0 -12 15t-8 23zM58 1206q0 30 26 45t52 15q46 0 74 -20q22 -14 106 -112t84 -110q0 -4 -6 -12t-10 -8q-26 0 -176 88t-150 114z" />
<glyph unicode="&#xed;" horiz-adv-x="524" d="M56 682q26 44 108 116t144 72q32 0 55 -30t23 -74q0 -32 -14 -106l-102 -448q-8 -40 -8 -64q0 -50 20 -50q10 0 25 8t29 20t30 28t27 28t19 22l10 10q4 0 12 -15t8 -23q-24 -42 -112 -115t-150 -73q-32 0 -50 29t-18 75q0 32 14 106l102 448q8 48 8 64q0 50 -20 50 q-10 0 -25 -8t-29 -20t-30 -28t-27 -28t-21 -22l-8 -10q-4 0 -12 15t-8 23zM196 1024q0 12 84 110t106 112q28 20 74 20q26 0 52 -15t26 -45q0 -26 -150 -114t-176 -88q-4 0 -10 8t-6 12z" />
<glyph unicode="&#xee;" horiz-adv-x="524" d="M56 682q26 44 108 116t144 72q32 0 55 -30t23 -74q0 -32 -14 -106l-102 -448q-8 -40 -8 -64q0 -50 20 -50q10 0 25 8t29 20t30 28t27 28t19 22l10 10q4 0 12 -15t8 -23q-24 -42 -112 -115t-150 -73q-32 0 -50 29t-18 75q0 32 14 106l102 448q8 48 8 64q0 50 -20 50 q-10 0 -25 -8t-29 -20t-30 -28t-27 -28t-21 -22l-8 -10q-4 0 -12 15t-8 23zM104 1010q144 136 232 232q16 16 24 16q10 0 18 -16q64 -120 136 -232q-2 -8 -10 -15t-16 -7l-156 128q-132 -78 -210 -128q-8 0 -14 7t-4 15z" />
<glyph unicode="&#xef;" horiz-adv-x="524" d="M56 682q26 44 108 116t144 72q32 0 55 -30t23 -74q0 -32 -14 -106l-102 -448q-8 -40 -8 -64q0 -50 20 -50q10 0 25 8t29 20t30 28t27 28t19 22l10 10q4 0 12 -15t8 -23q-24 -42 -112 -115t-150 -73q-32 0 -50 29t-18 75q0 32 14 106l102 448q8 48 8 64q0 50 -20 50 q-10 0 -25 -8t-29 -20t-30 -28t-27 -28t-21 -22l-8 -10q-4 0 -12 15t-8 23zM128 1102q0 46 29 79t73 33q30 0 52 -24t22 -56q0 -48 -31 -84t-77 -36q-32 0 -50 26t-18 62zM394 1102q0 46 29 79t73 33q30 0 52 -24t22 -56q0 -48 -31 -84t-77 -36q-32 0 -50 26t-18 62z" />
<glyph unicode="&#xf0;" horiz-adv-x="874" d="M58 271q-10 81 10 163q32 172 153 307t273 135q46 0 83 -18t53 -44q8 330 -342 514q0 12 13 30t23 18q108 -30 198 -101t155 -182t85 -259t-12 -334q-44 -224 -158 -369t-248 -145q-88 0 -152 39t-94 102t-40 144zM224 448q-30 -148 6 -266t116 -118q174 0 246 370 q28 146 4 230q-42 132 -138 132q-86 0 -146 -98t-88 -250zM294 1082l500 328q32 -50 20 -62l-502 -330q-30 52 -18 64z" />
<glyph unicode="&#xf1;" horiz-adv-x="994" d="M44 682q26 44 108 116t144 72q32 0 55 -30t23 -74q0 -38 -16 -106l-36 -168q40 78 173 228t219 150q124 0 124 -132q0 -82 -28 -218l-66 -308q-8 -40 -8 -64q0 -50 20 -50q10 0 25 8t29 20t30 28t27 28t21 22l8 10q4 0 12 -15t8 -23q-24 -42 -112 -115t-150 -73 q-32 0 -50 29t-18 75q0 32 14 106l70 330q14 64 14 108q0 30 -2 46t-10 28t-26 12q-68 0 -203 -154t-167 -324q-8 -40 -50 -244q-56 -8 -72 -8q-14 0 -70 8l132 646q8 48 8 64q0 50 -20 50q-10 0 -25 -8t-29 -20t-30 -28t-27 -28t-21 -22l-8 -10q-4 0 -12 15t-8 23z M260 1032q6 42 40 72q70 64 158 64q60 0 112 -26q8 -4 35 -19t48 -21t47 -6q58 0 130 72q14 -4 12 -18q-6 -42 -42 -74q-68 -64 -156 -64q-50 0 -110 28q-4 2 -27 14t-33 16t-32 9t-42 5q-58 0 -130 -72q-12 4 -10 20z" />
<glyph unicode="&#xf2;" horiz-adv-x="828" d="M48 276q0 214 142 404t312 190q116 0 175 -80t59 -214q0 -212 -143 -399t-313 -187q-116 0 -174 76t-58 210zM204 316q0 -120 30 -191t84 -71q78 0 140 83t92 193t30 216q0 260 -106 260q-116 0 -193 -160t-77 -330zM284 1206q0 30 26 45t52 15q46 0 74 -20 q22 -14 106 -112t84 -110q0 -4 -6 -12t-10 -8q-26 0 -176 88t-150 114z" />
<glyph unicode="&#xf3;" horiz-adv-x="828" d="M48 276q0 214 142 404t312 190q116 0 175 -80t59 -214q0 -212 -143 -399t-313 -187q-116 0 -174 76t-58 210zM204 316q0 -120 30 -191t84 -71q78 0 140 83t92 193t30 216q0 260 -106 260q-116 0 -193 -160t-77 -330zM402 1024q0 12 84 110t106 112q28 20 74 20 q26 0 52 -15t26 -45q0 -26 -150 -114t-176 -88q-4 0 -10 8t-6 12z" />
<glyph unicode="&#xf4;" horiz-adv-x="828" d="M48 276q0 214 142 404t312 190q116 0 175 -80t59 -214q0 -212 -143 -399t-313 -187q-116 0 -174 76t-58 210zM204 316q0 -120 30 -191t84 -71q78 0 140 83t92 193t30 216q0 260 -106 260q-116 0 -193 -160t-77 -330zM294 1010q144 136 232 232q16 16 24 16q10 0 18 -16 q64 -120 136 -232q-2 -8 -10 -15t-16 -7l-156 128q-132 -78 -210 -128q-8 0 -14 7t-4 15z" />
<glyph unicode="&#xf5;" horiz-adv-x="828" d="M48 276q0 214 142 404t312 190q116 0 175 -80t59 -214q0 -212 -143 -399t-313 -187q-116 0 -174 76t-58 210zM204 316q0 -120 30 -191t84 -71q78 0 140 83t92 193t30 216q0 260 -106 260q-116 0 -193 -160t-77 -330zM228 1032q6 42 40 72q70 64 158 64q60 0 112 -26 q8 -4 35 -19t48 -21t47 -6q58 0 130 72q14 -4 12 -18q-6 -42 -42 -74q-68 -64 -156 -64q-50 0 -110 28q-4 2 -27 14t-33 16t-32 9t-42 5q-58 0 -130 -72q-12 4 -10 20z" />
<glyph unicode="&#xf6;" horiz-adv-x="828" d="M48 276q0 214 142 404t312 190q116 0 175 -80t59 -214q0 -212 -143 -399t-313 -187q-116 0 -174 76t-58 210zM204 316q0 -120 30 -191t84 -71q78 0 140 83t92 193t30 216q0 260 -106 260q-116 0 -193 -160t-77 -330zM278 1102q0 46 29 79t73 33q30 0 52 -24t22 -56 q0 -48 -31 -84t-77 -36q-32 0 -50 26t-18 62zM616 1102q0 46 29 79t73 33q30 0 52 -24t22 -56q0 -48 -31 -84t-77 -36q-32 0 -50 26t-18 62z" />
<glyph unicode="&#xf7;" horiz-adv-x="1014" d="M66 468q0 42 20 74h842q6 0 6 -16q0 -38 -24 -78h-836q-8 0 -8 20zM338 96q0 46 29 79t73 33q30 0 51 -24t21 -56q0 -48 -30 -84t-76 -36q-32 0 -50 26t-18 62zM486 868q0 46 29 79t73 33q30 0 52 -24t22 -56q0 -48 -31 -84t-77 -36q-32 0 -50 26t-18 62z" />
<glyph unicode="&#xf8;" horiz-adv-x="828" d="M48 276q0 214 142 404t312 190q116 0 175 -80t59 -214q0 -212 -143 -399t-313 -187q-116 0 -174 76t-58 210zM66 40l616 798q48 -24 38 -38l-616 -800q-48 24 -38 40zM204 316q0 -120 30 -191t84 -71q78 0 140 83t92 193t30 216q0 260 -106 260q-116 0 -193 -160 t-77 -330z" />
<glyph unicode="&#xf9;" horiz-adv-x="982" d="M40 682q26 44 108 116t144 72q32 0 55 -30t23 -74q0 -32 -14 -106l-70 -330q-14 -62 -14 -108q0 -86 38 -86t113 71t149 193t96 238q16 88 44 220q26 8 62 8q46 0 78 -8l-124 -646q-8 -40 -8 -64q0 -50 20 -50q10 0 25 8t29 20t30 28t27 28t21 22l8 10q4 0 12 -15t8 -23 q-24 -42 -112 -115t-150 -73q-32 0 -50 29t-18 75q0 32 14 106q6 30 11 57t13 60t12 57q-48 -104 -180 -244t-222 -140q-100 0 -100 144q0 70 28 206l66 308q8 48 8 64q0 50 -20 50q-10 0 -25 -8t-29 -20t-30 -28t-27 -28t-21 -22l-8 -10q-4 0 -12 15t-8 23zM310 1206 q0 30 26 45t52 15q46 0 74 -20q22 -14 106 -112t84 -110q0 -4 -6 -12t-10 -8q-26 0 -176 88t-150 114z" />
<glyph unicode="&#xfa;" horiz-adv-x="982" d="M40 682q26 44 108 116t144 72q32 0 55 -30t23 -74q0 -32 -14 -106l-70 -330q-14 -62 -14 -108q0 -86 38 -86t113 71t149 193t96 238q16 88 44 220q26 8 62 8q46 0 78 -8l-124 -646q-8 -40 -8 -64q0 -50 20 -50q10 0 25 8t29 20t30 28t27 28t21 22l8 10q4 0 12 -15t8 -23 q-24 -42 -112 -115t-150 -73q-32 0 -50 29t-18 75q0 32 14 106q6 30 11 57t13 60t12 57q-48 -104 -180 -244t-222 -140q-100 0 -100 144q0 70 28 206l66 308q8 48 8 64q0 50 -20 50q-10 0 -25 -8t-29 -20t-30 -28t-27 -28t-21 -22l-8 -10q-4 0 -12 15t-8 23zM432 1024 q0 12 84 110t106 112q28 20 74 20q26 0 52 -15t26 -45q0 -26 -150 -114t-176 -88q-4 0 -10 8t-6 12z" />
<glyph unicode="&#xfb;" horiz-adv-x="982" d="M40 682q26 44 108 116t144 72q32 0 55 -30t23 -74q0 -32 -14 -106l-70 -330q-14 -62 -14 -108q0 -86 38 -86t113 71t149 193t96 238q16 88 44 220q26 8 62 8q46 0 78 -8l-124 -646q-8 -40 -8 -64q0 -50 20 -50q10 0 25 8t29 20t30 28t27 28t21 22l8 10q4 0 12 -15t8 -23 q-24 -42 -112 -115t-150 -73q-32 0 -50 29t-18 75q0 32 14 106q6 30 11 57t13 60t12 57q-48 -104 -180 -244t-222 -140q-100 0 -100 144q0 70 28 206l66 308q8 48 8 64q0 50 -20 50q-10 0 -25 -8t-29 -20t-30 -28t-27 -28t-21 -22l-8 -10q-4 0 -12 15t-8 23zM324 1010 q144 136 232 232q16 16 24 16q10 0 18 -16q64 -120 136 -232q-2 -8 -10 -15t-16 -7l-156 128q-132 -78 -210 -128q-8 0 -14 7t-4 15z" />
<glyph unicode="&#xfc;" horiz-adv-x="982" d="M40 682q26 44 108 116t144 72q32 0 55 -30t23 -74q0 -32 -14 -106l-70 -330q-14 -62 -14 -108q0 -86 38 -86t113 71t149 193t96 238q16 88 44 220q26 8 62 8q46 0 78 -8l-124 -646q-8 -40 -8 -64q0 -50 20 -50q10 0 25 8t29 20t30 28t27 28t21 22l8 10q4 0 12 -15t8 -23 q-24 -42 -112 -115t-150 -73q-32 0 -50 29t-18 75q0 32 14 106q6 30 11 57t13 60t12 57q-48 -104 -180 -244t-222 -140q-100 0 -100 144q0 70 28 206l66 308q8 48 8 64q0 50 -20 50q-10 0 -25 -8t-29 -20t-30 -28t-27 -28t-21 -22l-8 -10q-4 0 -12 15t-8 23zM304 1102 q0 46 29 79t73 33q30 0 52 -24t22 -56q0 -48 -31 -84t-77 -36q-32 0 -50 26t-18 62zM642 1102q0 46 29 79t73 33q30 0 52 -24t22 -56q0 -48 -31 -84t-77 -36q-32 0 -50 26t-18 62z" />
<glyph unicode="&#xfd;" horiz-adv-x="894" d="M-222 -384q0 64 46 88q22 -14 74 -26t86 -12q158 0 272 166q14 20 22 46t11 64t4 59t0 69t-1 54q0 98 -5 198t-18 204t-38 169t-59 65q-10 0 -25 -8t-29 -20t-30 -28t-27 -28t-21 -22l-8 -10q-4 0 -12 15t-8 23q26 44 108 116t144 72q60 0 100 -107t55 -274t19 -269 t4 -190q80 98 155 247t75 293q0 118 -50 214q26 86 100 86q88 0 88 -158q0 -220 -172 -505t-389 -479t-351 -194q-52 0 -86 24t-34 58zM458 1024q0 12 84 110t106 112q28 20 74 20q26 0 52 -15t26 -45q0 -26 -150 -114t-176 -88q-4 0 -10 8t-6 12z" />
<glyph unicode="&#xfe;" d="M-107 -442q1 26 7 30q54 0 80 32q20 24 32 86l158 794l-96 -96q-12 16 -12 40q0 8 6 14l118 126l102 536q2 12 7 36t8 42t3 28q0 38 -122 38q-4 6 -1 21t9 21q110 10 264 66q12 -8 12 -38q0 -20 -26 -150q-2 -22 -48 -254t-48 -238q192 178 296 178q174 0 174 -242 q0 -152 -74 -301t-192 -243t-238 -94q-76 0 -92 26l-66 -306q-6 -26 -6 -56q0 -10 8 -26t20 -20q26 -6 94 -6q6 -2 4 -28t-10 -28q-12 0 -35 1t-35 1q-146 0 -296 -18q-6 2 -5 28zM260 262q-16 -84 15 -143t79 -59q82 0 156 87t116 213t42 246q0 154 -106 154 q-48 0 -121 -51t-115 -109z" />
<glyph unicode="&#xff;" horiz-adv-x="894" d="M-222 -384q0 64 46 88q22 -14 74 -26t86 -12q158 0 272 166q14 20 22 46t11 64t4 59t0 69t-1 54q0 98 -5 198t-18 204t-38 169t-59 65q-10 0 -25 -8t-29 -20t-30 -28t-27 -28t-21 -22l-8 -10q-4 0 -12 15t-8 23q26 44 108 116t144 72q60 0 100 -107t55 -274t19 -269 t4 -190q80 98 155 247t75 293q0 118 -50 214q26 86 100 86q88 0 88 -158q0 -220 -172 -505t-389 -479t-351 -194q-52 0 -86 24t-34 58zM266 1102q0 46 29 79t73 33q30 0 52 -24t22 -56q0 -48 -31 -84t-77 -36q-32 0 -50 26t-18 62zM604 1102q0 46 29 79t73 33q30 0 52 -24 t22 -56q0 -48 -31 -84t-77 -36q-32 0 -50 26t-18 62z" />
<glyph unicode="&#x152;" horiz-adv-x="2006" d="M110 518q0 208 111 399t284 304t353 113q76 0 260 -11t242 -11q82 0 291 8t313 8q-2 -28 -2 -78q0 -34 2 -98t2 -96q-10 -10 -36 -10q-22 0 -22 14q-10 116 -58 149t-160 33h-108q-138 0 -148 -24q-22 -60 -38 -146l-68 -358q0 -6 5 -9t17 -4l24 -2q12 -1 28 -1h90 q96 0 132 9t57 34t55 101q6 14 28 14q24 0 30 -10l-72 -378q-12 -8 -28 -8q-28 0 -30 16q-6 114 -26 132q-20 16 -196 16q-132 0 -136 -18l-60 -302q-30 -146 -30 -196q0 -20 27 -27t103 -7h90q146 0 242 48q32 16 75 71t81 131q6 12 30 12q34 0 42 -12q-140 -260 -164 -332 q-106 0 -330 7t-304 7q-152 0 -214 -4q-44 -2 -112 -8t-117 -10t-79 -4q-214 0 -345 153t-131 385zM300 532q0 -206 85 -338t247 -132q126 0 206 22t160 96q14 12 27 32t25 51t22 57t21 70t18 71t18 78t15 72t14 72t12 61q58 312 22 390q-34 72 -146 100t-228 28 q-148 0 -270 -112t-185 -278t-63 -340z" />
<glyph unicode="&#x153;" horiz-adv-x="1228" d="M48 276q0 214 142 404t312 190q174 0 220 -174q158 174 328 174q70 0 101 -36t31 -88q0 -88 -94 -176t-204 -136t-176 -48q-4 -12 -4 -64q0 -216 138 -216q16 0 34 6t35 15t34 21t31 24t28 25t22 22t14 17l8 8q4 0 14 -16t10 -24q-32 -54 -127 -135t-177 -81 q-156 0 -202 156q-138 -154 -286 -154q-116 0 -174 76t-58 210zM204 316q0 -120 30 -191t84 -71q102 0 182 145t80 347q0 260 -106 260q-116 0 -193 -160t-77 -330zM712 436q84 4 203 89t119 183q0 38 -26 59t-58 21q-84 0 -153 -115t-85 -237z" />
<glyph unicode="&#x178;" horiz-adv-x="1112" d="M114 1279q0 11 5 26t11 19q226 -10 230 -10q50 0 240 10q2 -10 -3 -34t-11 -24q-34 0 -76 -15t-48 -49q-4 -16 10 -60l160 -478q92 130 207 302t141 218q10 14 12 30q2 8 -7 19t-40 21t-79 10q-4 4 0 28t8 30q170 -10 190 -10q16 0 206 10q0 -6 -6 -32t-10 -26 q-120 0 -178 -80l-410 -582q-8 -12 -20 -62l-62 -308q-24 -118 -20 -148q2 -14 48 -23t74 -9q6 -8 2 -29t-12 -29q-190 10 -216 10t-222 -10q-6 8 -1 29t13 29q28 0 78 9t56 23q14 28 38 148l58 302q4 34 -2 56l-166 506q-18 54 -39 84t-57 54q-44 32 -98 32q-4 2 -4 13z M504 1556q8 42 40 71t71 29t61 -29t14 -71t-41 -71t-73 -29q-38 0 -59 29t-13 71zM840 1556q8 42 40 71t71 29t61 -29t14 -71t-40 -71t-71 -29t-61 29t-14 71z" />
<glyph unicode="&#x2c6;" horiz-adv-x="892" d="M1382 1430q144 136 232 232q16 16 24 16q10 0 18 -16q64 -120 136 -232q-2 -8 -10 -15t-16 -7l-156 128q-132 -78 -210 -128q-8 0 -14 7t-4 15z" />
<glyph unicode="&#x2dc;" horiz-adv-x="892" d="M1244 1468q6 42 40 72q70 64 158 64q60 0 112 -26q8 -4 35 -19t48 -21t47 -6q58 0 130 72q14 -4 12 -18q-6 -42 -42 -74q-68 -64 -156 -64q-50 0 -110 28q-4 2 -27 14t-33 16t-32 9t-42 5q-58 0 -130 -72q-12 4 -10 20z" />
<glyph unicode="&#x2000;" horiz-adv-x="838" />
<glyph unicode="&#x2001;" horiz-adv-x="1678" />
<glyph unicode="&#x2002;" horiz-adv-x="838" />
<glyph unicode="&#x2003;" horiz-adv-x="1678" />
<glyph unicode="&#x2004;" horiz-adv-x="558" />
<glyph unicode="&#x2005;" horiz-adv-x="418" />
<glyph unicode="&#x2006;" horiz-adv-x="278" />
<glyph unicode="&#x2007;" horiz-adv-x="278" />
<glyph unicode="&#x2008;" horiz-adv-x="208" />
<glyph unicode="&#x2009;" horiz-adv-x="334" />
<glyph unicode="&#x200a;" horiz-adv-x="92" />
<glyph unicode="&#x2010;" horiz-adv-x="742" d="M106 428q0 20 14 56t28 38l454 24q12 0 12 -24q0 -22 -16 -61t-30 -41l-452 -22q-10 0 -10 30z" />
<glyph unicode="&#x2011;" horiz-adv-x="742" d="M106 428q0 20 14 56t28 38l454 24q12 0 12 -24q0 -22 -16 -61t-30 -41l-452 -22q-10 0 -10 30z" />
<glyph unicode="&#x2012;" horiz-adv-x="742" d="M106 428q0 20 14 56t28 38l454 24q12 0 12 -24q0 -22 -16 -61t-30 -41l-452 -22q-10 0 -10 30z" />
<glyph unicode="&#x2013;" horiz-adv-x="1128" d="M106 426q0 22 14 55t30 43h832q12 0 12 -26q0 -22 -14 -55t-30 -43h-832q-12 0 -12 26z" />
<glyph unicode="&#x2014;" horiz-adv-x="1600" d="M106 426q0 22 14 55t30 43h1304q12 0 12 -26q0 -22 -14 -55t-30 -43h-1304q-12 0 -12 26z" />
<glyph unicode="&#x2018;" horiz-adv-x="366" d="M204 1110q10 52 39 103t64 85t71 61t60 40t30 13q20 0 28 -36q-58 -32 -98 -75t-53 -67t-15 -40q-6 -26 24 -71t26 -73q-8 -36 -50 -61t-88 -25q-18 0 -36 6q-22 46 -2 140z" />
<glyph unicode="&#x2019;" horiz-adv-x="386" d="M166 1004q56 32 97 75t54 68t17 39q4 26 -25 71t-23 73q8 36 49 61t87 25q18 0 36 -6q20 -42 0 -140q-16 -84 -80 -159t-116 -109t-66 -34q-24 0 -30 36z" />
<glyph unicode="&#x201a;" horiz-adv-x="392" d="M-90 -160q56 32 97 75t54 68t17 39q4 26 -26 71t-24 73q8 36 50 61t88 25q18 0 36 -6q20 -42 0 -140q-16 -84 -80 -159t-116 -108t-66 -33q-24 0 -30 34z" />
<glyph unicode="&#x201c;" horiz-adv-x="632" d="M204 1110q10 52 39 103t64 85t71 61t60 40t30 13q20 0 28 -36q-58 -32 -98 -75t-53 -67t-15 -40q-6 -26 24 -71t26 -73q-8 -36 -50 -61t-88 -25q-18 0 -36 6q-22 46 -2 140zM472 970q-20 42 0 140q10 52 39 103t64 85t70 61t59 40t30 13q22 0 30 -36q-58 -32 -99 -75 t-54 -68t-15 -39q-6 -26 24 -71t26 -73q-8 -36 -49 -61t-87 -25q-20 0 -38 6z" />
<glyph unicode="&#x201d;" horiz-adv-x="654" d="M166 1004q56 32 97 75t54 68t17 39q4 26 -25 71t-23 73q8 36 49 61t87 25q18 0 36 -6q20 -42 0 -140q-16 -84 -80 -159t-116 -109t-66 -34q-24 0 -30 36zM434 1004q56 32 97 75t53 67t16 40q4 26 -25 71t-23 73q8 36 49 61t87 25q18 0 36 -6q20 -46 2 -140 q-16 -84 -80 -159t-117 -109t-67 -34q-22 0 -28 36z" />
<glyph unicode="&#x201e;" horiz-adv-x="658" d="M-90 -160q56 32 97 75t54 68t17 39q4 26 -26 71t-24 73q8 36 50 61t88 25q18 0 36 -6q20 -42 0 -140q-16 -84 -80 -159t-116 -108t-66 -33q-24 0 -30 34zM176 -164q56 32 97 75t53 67t16 40q4 26 -25 71t-23 73q8 36 50 61t88 25q18 0 36 -6q20 -42 0 -140 q-16 -84 -80 -159t-116 -108t-66 -33q-24 0 -30 34z" />
<glyph unicode="&#x2022;" horiz-adv-x="668" d="M132 526q16 88 88 152t154 64t128 -64t30 -152t-88 -152t-154 -64t-128 64t-30 152z" />
<glyph unicode="&#x2026;" horiz-adv-x="1360" d="M18 64q0 56 39 98t89 42q38 0 63 -25t25 -65q0 -54 -41 -98t-91 -44q-38 0 -61 26t-23 66zM492 64q0 56 39 98t89 42q38 0 63 -25t25 -65q0 -54 -41 -98t-91 -44q-38 0 -61 26t-23 66zM962 64q0 56 40 98t90 42q38 0 63 -25t25 -65q0 -54 -42 -98t-92 -44q-38 0 -61 26 t-23 66z" />
<glyph unicode="&#x202f;" horiz-adv-x="334" />
<glyph unicode="&#x2039;" horiz-adv-x="608" d="M54 484q0 30 30 48q78 44 149 91t100 68t106 82t93 73q32 -8 36 -30q-10 -24 -336 -318q208 -300 208 -316q-12 -20 -42 -36q-46 60 -141 151t-183 159q-20 14 -20 28z" />
<glyph unicode="&#x203a;" horiz-adv-x="610" d="M26 176q10 24 336 318q-208 300 -208 316q12 20 42 36q46 -60 141 -151t183 -159q20 -14 20 -28q0 -30 -30 -48q-78 -44 -149 -91t-100 -68t-106 -82t-93 -73q-32 8 -36 30z" />
<glyph unicode="&#x205f;" horiz-adv-x="418" />
<glyph unicode="&#x20ac;" horiz-adv-x="1236" d="M56 500q0 12 8 33t18 29h676q6 0 6 -16q0 -38 -24 -62h-676q-8 0 -8 16zM86 696q0 12 8 33t18 29h676q6 0 6 -16q0 -38 -24 -62h-676q-8 0 -8 16zM160 504q0 172 66 320t171 244t235 148t262 50q114 -2 292 -50q-2 -40 -9 -157t-7 -121q-2 -14 -20 -14q-32 0 -42 14 q6 112 -74 187t-190 75q-98 0 -189 -47t-161 -130t-111 -210t-41 -277q0 -120 39 -227t126 -182t207 -75q126 0 234 96q80 72 132 180l50 -14q-6 -32 -58 -139t-70 -123q-70 -38 -147 -53t-189 -15q-204 0 -355 154t-151 366z" />
<glyph unicode="&#x2122;" horiz-adv-x="2880" d="M1126 -6q-2 4 2 26t10 32q30 0 86 10t70 26q26 30 42 100q194 842 212 956q9 42 9 66q0 8 -1 14q0 16 -49 29t-73 13q-2 0 1 14l6 28q3 14 5 16q32 -2 65 -4t60 -4t65 -2q48 0 152 10q6 -54 40 -231t82 -418t72 -383q2 -4 6 -4q8 0 12 8l438 788l128 240q116 -8 144 -8 q114 0 210 8l-4 -58q-26 0 -78 -11t-62 -25q-16 -30 -24 -76l-152 -874q-17 -95 -17 -152q0 -24 3 -42q4 -18 49 -26t73 -8q4 -14 1 -33t-7 -25q-184 10 -220 10q-10 0 -226 -10q-2 4 2 26t10 32q22 0 66 6t60 16t32 84q4 14 11 58t9 58l142 856q4 6 2 23t-12 17 q-4 0 -12 -14l-598 -1058q-10 -20 -43 -60t-47 -42q-2 0 -16 4l-228 1168q-40 -192 -95 -442t-90 -411t-37 -165q-8 -34 -4 -62q4 -20 57 -28t83 -8q4 -8 0 -30t-8 -28q-184 10 -194 10q-4 0 -220 -10zM120 1012q56 144 116 344q6 3 13 3q12 0 27 -9q46 -28 100 -28h366h360 q58 0 118 30q14 7 24 7q7 0 12 -3q-18 -220 -18 -344q-16 -16 -40 -14q-20 0 -24 10v12q0 101 -31 163q-33 65 -99 65h-236l-198 -1016q-21 -101 -21 -138q0 -6 1 -10q2 -14 48 -23t74 -9q4 -8 1 -29t-11 -29q-190 10 -216 10t-222 -10q-6 8 -1 29t13 29q28 0 78 9t56 23 q14 28 38 148l198 1016h-240q-132 0 -224 -240q-6 -10 -28 -10q-22 -2 -34 14z" />
<glyph unicode="&#xe000;" horiz-adv-x="870" d="M0 870h870v-870h-870v870z" />
<glyph unicode="&#xfb01;" horiz-adv-x="1116" d="M642 682q26 44 108 116t144 72q32 0 55 -30t23 -74q0 -32 -14 -106l-102 -448q-8 -40 -8 -64q0 -50 20 -50q10 0 25 8t29 20t30 28t27 28t21 22l8 10q4 0 12 -15t8 -23q-24 -42 -112 -115t-150 -73q-32 0 -50 29t-18 75q0 32 14 106l102 448q8 48 8 64q0 50 -20 50 q-10 0 -25 -8t-29 -20t-30 -28t-27 -28t-19 -22l-10 -10q-4 0 -12 15t-8 23zM824 1178q0 46 30 80t74 34q30 0 51 -24t21 -56q0 -48 -31 -84t-77 -36q-32 0 -50 25t-18 61zM-248 -416q0 16 2 32q12 80 58 80q34 0 76 -46q30 -30 58 -30q56 0 93 101t87 357l120 674h-170 q-4 0 -4 6q0 18 30 43t62 25h94q46 238 168 391t246 153q82 0 108 -50v-18q-8 -94 -60 -94q-34 0 -76 46q-30 30 -58 30q-56 0 -93 -101t-87 -357h200q10 0 10 -24q0 -22 -18 -50h-206q-70 -414 -118 -666q-46 -240 -168 -396t-246 -156q-82 0 -108 50z" />
<glyph unicode="&#xfb02;" horiz-adv-x="1078" d="M666 92q0 32 14 106l180 920q18 82 18 106q0 38 -122 38q-4 6 -1 21t9 21q110 10 264 66q12 -8 12 -38q0 -20 -26 -150l-190 -970q-8 -32 -8 -64q0 -50 20 -50q10 0 25 8t29 20t30 28t27 28t21 22l8 10q4 0 12 -15t8 -23q-24 -42 -112 -115t-150 -73q-32 0 -50 29t-18 75 zM-248 -416q0 16 2 32q12 80 58 80q34 0 76 -46q30 -30 58 -30q56 0 93 101t87 357l120 674h-170q-4 0 -4 6q0 18 30 43t62 25h94q46 238 168 391t246 153q82 0 108 -50v-18q-8 -94 -60 -94q-34 0 -76 46q-30 30 -58 30q-56 0 -93 -101t-87 -357h200q10 0 10 -24 q0 -22 -18 -50h-206q-70 -414 -118 -666q-46 -240 -168 -396t-246 -156q-82 0 -108 50z" />
<glyph unicode="&#xfb03;" horiz-adv-x="1708" d="M1234 682q26 44 108 116t144 72q32 0 55 -30t23 -74q0 -32 -14 -106l-102 -448q-8 -40 -8 -64q0 -50 20 -50q10 0 25 8t29 20t30 28t27 28t21 22l8 10q4 0 12 -15t8 -23q-24 -42 -112 -115t-150 -73q-32 0 -50 29t-18 75q0 32 14 106l102 448q8 48 8 64q0 50 -20 50 q-10 0 -25 -8t-29 -20t-30 -28t-27 -28t-19 -22l-10 -10q-4 0 -12 15t-8 23zM1416 1178q0 46 30 80t74 34q30 0 51 -24t21 -56q0 -48 -31 -84t-77 -36q-32 0 -50 25t-18 61zM344 -416q0 16 2 32q12 80 58 80q34 0 76 -46q30 -30 58 -30q56 0 93 101t87 357l120 674h-170 q-4 0 -4 6q0 18 30 43t62 25h94q46 238 168 391t246 153q82 0 108 -50v-18q-8 -94 -60 -94q-34 0 -76 46q-30 30 -58 30q-56 0 -93 -101t-87 -357h200q10 0 10 -24q0 -22 -18 -50h-206q-70 -414 -118 -666q-46 -240 -168 -396t-246 -156q-82 0 -108 50zM-248 -416q0 16 2 32 q12 80 58 80q34 0 76 -46q30 -30 58 -30q56 0 93 101t87 357l120 674h-170q-4 0 -4 6q0 18 30 43t62 25h94q46 238 168 391t246 153q82 0 108 -50v-18q-8 -94 -60 -94q-34 0 -76 46q-30 30 -58 30q-56 0 -93 -101t-87 -357h200q10 0 10 -24q0 -22 -18 -50h-206 q-70 -414 -118 -666q-46 -240 -168 -396t-246 -156q-82 0 -108 50z" />
<glyph unicode="&#xfb04;" horiz-adv-x="1670" d="M1258 92q0 32 14 106l180 920q18 82 18 106q0 38 -122 38q-4 6 -1 21t9 21q110 10 264 66q12 -8 12 -38q0 -20 -26 -150l-190 -970q-8 -32 -8 -64q0 -50 20 -50q10 0 25 8t29 20t30 28t27 28t21 22l8 10q4 0 12 -15t8 -23q-24 -42 -112 -115t-150 -73q-32 0 -50 29 t-18 75zM344 -416q0 16 2 32q12 80 58 80q34 0 76 -46q30 -30 58 -30q56 0 93 101t87 357l120 674h-170q-4 0 -4 6q0 18 30 43t62 25h94q46 238 168 391t246 153q82 0 108 -50v-18q-8 -94 -60 -94q-34 0 -76 46q-30 30 -58 30q-56 0 -93 -101t-87 -357h200q10 0 10 -24 q0 -22 -18 -50h-206q-70 -414 -118 -666q-46 -240 -168 -396t-246 -156q-82 0 -108 50zM-248 -416q0 16 2 32q12 80 58 80q34 0 76 -46q30 -30 58 -30q56 0 93 101t87 357l120 674h-170q-4 0 -4 6q0 18 30 43t62 25h94q46 238 168 391t246 153q82 0 108 -50v-18 q-8 -94 -60 -94q-34 0 -76 46q-30 30 -58 30q-56 0 -93 -101t-87 -357h200q10 0 10 -24q0 -22 -18 -50h-206q-70 -414 -118 -666q-46 -240 -168 -396t-246 -156q-82 0 -108 50z" />
</font>
</defs>
</svg>
